<svg xmlns="http://www.w3.org/2000/svg" viewBox="0 0 101.6 101.6"><path fill="#9c0000" d="M49.97 40.6c-3 .05-4.92 1.87-4.92 1.87s-.19.6.07.8c5.32 4.82 10.02.03 10.02.03s.42-.03.21-.69a7.4 7.4 0 0 0-5.38-2zm.2.72a7.06 7.06 0 0 1 4.16 1.32c-.04.04-3.96 4.6-8.38-.08 0 0 1.8-1.23 4.22-1.24z"/><path fill="none" stroke="#9c0000" stroke-linecap="round" stroke-width=".4" d="M47.88 40.8s2.89-.83 4.56.09"/><g><path d="M49.22 45.83c-.24-.05-.4-.24-.34-.4.04-.11.18-.13.88-.08.5.03.96.02 1.15-.04.25-.07.34-.06.44.04.2.2.16.28-.17.42-.27.11-1.5.15-1.96.06zm-.2-.8a6.7 6.7 0 0 1-2.86-1.54c-.2-.18-.36-.38-.36-.45 0-.17-.12-.14-.41.1-.34.3-.72.26-.75-.05-.04-.3.58-.86 1.3-1.19.71-.32 2.3-.8 3.1-.93 1.35-.2 3.2.08 4.94.77.72.29 1.52.84 1.66 1.15.2.44-.38.63-.77.25l-.22-.2-.64.6a6 6 0 0 1-2.76 1.5c-.85.21-1.4.21-2.23 0zm2.54-.87a5.34 5.34 0 0 0 2.37-1.57c0-.07-.7-.34-1.4-.54l-.43-.12-.1.5c-.17.79-.81 1.4-1.64 1.56-.38.07-.83-.07-1.3-.4-.46-.3-.7-.71-.77-1.25a1.3 1.3 0 0 0-.1-.43c-.12 0-1.88.62-1.87.67.01.13 1.05.94 1.53 1.2.84.44 1.37.58 2.29.58.65 0 .94-.04 1.42-.2zm-.84-1c.57-.39.84-1.07.55-1.36-.25-.25-1.74-.28-2.18-.05-.2.1-.2.58-.03.92.16.3.77.68 1.11.68.15 0 .4-.09.55-.2zm-3.2-2.42c-.07-.04-.11-.15-.1-.24.05-.21.67-.41 1.83-.57a4.6 4.6 0 0 1 1.74-.01c1.4.21 1.93.37 1.93.6 0 .23-.33.26-.96.1-.46-.13-.9-.18-1.75-.18-1.08 0-1.3.03-2.42.33a.4.4 0 0 1-.28-.03z"/></g></svg>