<svg xmlns="http://www.w3.org/2000/svg" viewBox="0 0 317.5 317.5"><g fill="#900"><path d="M137.9 129a10 10 0 0 0-10 10 10 10 0 0 0 10 9.9 10 10 0 0 0 10-10 10 10 0 0 0-10-9.9zm-1.3 1.2a6.9 7 0 0 1 6.8 7 6.9 7 0 0 1-6.8 7 6.9 7 0 0 1-6.9-7 6.9 7 0 0 1 6.9-7zM175.4 128.5a10 10 0 0 0-10 10 10 10 0 0 0 10 9.8 10 10 0 0 0 10-9.9 10 10 0 0 0-10-9.9zm.5 1.8a6.9 7 0 0 1 6.8 7 6.9 7 0 0 1-6.8 7 6.9 7 0 0 1-6.9-7 6.9 7 0 0 1 6.9-7z"/></g><path d="M134 145.8c-2.4-.3-3.9-1.5-5-4.2-.9-1.7-1.2-5.1-.7-7.1.7-3 2.8-5 6.5-6.3 1.3-.5 2.2-.4 3-.3a9.9 9.9 0 0 1 7.4 9.2c.2 2.6-.4 4-2.1 6a10 10 0 0 1-9 2.7zm6-3.9c1-.6 2-2 2-2.7 0-.2-.4-.3-1.6-.3-2.8 0-2.8 0-2.8 2.2v1.8l.7-.1c.4-.1 1.2-.5 1.7-.9zm-5.3-.9v-1.6h-1.3a4 4 0 0 0-1.5.2c-.4.4 1.8 3 2.5 3 .2 0 .3-.7.3-1.6zm0-4.8c.4-.6.3-5 0-5-1.4 0-3.7 3.1-3.7 4.9v.8l1.7-.2c1 0 1.9-.3 2-.5zm7.4-.3c0-1.3-2.8-5-3.8-5-.5 0-.7 1.4-.7 3.7v1.7h2.2c1.9 0 2.3-.1 2.3-.4zm2 9.7c-.1-.3.2-1 .9-2a11 11 0 0 0 1.8-5.3c0-1.1.4-1.6 1.1-1.5.6.1.7.3.8 1.2 0 1.4-.5 4-1 5.2-1.3 2.3-3.2 3.6-3.6 2.4zm22-.5a9.7 9.7 0 0 1-2.3-6c0-1.8 0-2 .4-2.2.8-.3 1.3.3 1.5 2a8 8 0 0 0 1.7 4.7c1 1.2 1.1 2 .5 2.3-.7.3-.9.2-1.8-.8zm8 .7a9.3 9.3 0 0 1-6.3-5c-.6-1.2-.6-1.7-.5-3.6a9.7 9.7 0 0 1 6.8-9.1l1.6-.3 1.9.4c2.6.4 3.8 1.7 5 3.2a9 9 0 0 1 1.7 6.4c-.2 3.6-1.9 6.7-4 7.5-1.3.5-5 .8-6.3.5zm.8-4.7v-1.9l-.8-.1-2.3-.2c-1.2 0-1.4 0-1.4.5 0 .7 1.5 2.3 2.7 3 1.7.8 1.8.7 1.8-1.3zm5 .7c1-.6 1.2-1.7 1.5-2 0-.8-.8-.4-2.6-.4h-1v1.6c0 .9.1 1.6.2 1.6.2 0 1 0 2-.8zm1.5-5.4c.3-.8-.5-2.7-1.7-4-2-1.8-2.2-1.7-2.1 1.4 0 2.5 0 2.6.7 2.8 1.2.3 3 .2 3.1-.2zm-6.5-1.4c0-2.3-.3-4-.7-4-.6 0-2.7 2-3.3 3.2-.9 2-.8 2 1.7 2h2.3V135z"/></svg>