<svg xmlns="http://www.w3.org/2000/svg" viewBox="0 0 101.6 101.6"><g fill="#900"><path d="M41.25 39.64a5.13 3.51 39.9 0 0-.8.1 5.13 3.51 39.9 0 0-1.24 5.1 5.13 3.51 39.9 0 0 6.28 3.2 5.13 3.51 39.9 0 0 1.25-5.1 5.13 3.51 39.9 0 0-5.49-3.3zm.11.34a4.22 2.45 47.56 0 1 3.44 1.88 4.22 2.45 47.56 0 1 1.04 4.77 4.22 2.45 47.56 0 1-4.65-1.47 4.22 2.45 47.56 0 1-1.04-4.77 4.22 2.45 47.56 0 1 1.21-.4zM58.69 39.64a3.51 5.13 50.1 0 0-5.49 3.3 3.51 5.13 50.1 0 0 1.25 5.1 3.51 5.13 50.1 0 0 6.29-3.2 3.51 5.13 50.1 0 0-1.25-5.1 3.51 5.13 50.1 0 0-.8-.1zm-.14.34a2.47 4.25 43.24 0 1 1.23.41 2.47 4.25 43.24 0 1-1.05 4.77A2.47 4.25 43.24 0 1 54 46.63a2.47 4.25 43.24 0 1 1.05-4.77 2.47 4.25 43.24 0 1 3.49-1.88z"/></g><path d="M43.86 47.53a7.16 7.16 0 0 1-4.4-3.82c-.77-1.53-.65-2.95.3-3.73.4-.34.95-.49 1.73-.47a5.77 5.77 0 0 1 5.37 4.33 6 6 0 0 1 .14 2.31c-.09.42-.16.52-.57.88-.7.61-1.55.78-2.57.5zm1.51-.94c.25-.14.24-.1.38-.24.06-.06.2-.16.25-.28.21-.32.16-.39.11-1.05a5.95 5.95 0 0 0-.85-2.54 4.81 4.81 0 0 0-3.87-2.1c-.94 0-1.4.38-1.49 1.2-.07.7.2 1.49.81 2.42a5.99 5.99 0 0 0 3.08 2.52c.77.26 1 .2 1.35.16zm9.06.95c-.59-.16-1.3-.8-1.42-1.27-.29-1.14.1-2.96.86-4.13a5.76 5.76 0 0 1 4.63-2.63c1.16-.02 1.84.33 2.26 1.15.43.86.35 1.81-.27 3.07a7.06 7.06 0 0 1-4.31 3.77c-.75.19-1.18.2-1.75.04zm1.54-.94a6.33 6.33 0 0 0 3.78-3.47c.28-.59.32-.74.32-1.32 0-.53-.03-.7-.17-.89-.27-.37-.68-.53-1.31-.53-1.22 0-2.38.5-3.27 1.4a4.66 4.66 0 0 0-1.3 2.36c-.24.94-.23 1.53.04 1.93.12.18.23.3.29.36.3.28.36.24.36.24.25.06.63.1 1.26-.08z"/></svg>