<svg xmlns="http://www.w3.org/2000/svg" viewBox="0 0 101.6 101.6"><path fill="#300" d="M40.06 41.13s-1.34 2.8.16 4.78c-.06.1-1.33-.24-1.67-1.3-.06-.87-.3-.4.14-2.61.63-.57 1.03-1 1.37-.87zM59.57 40.56s1.23 2 .37 4.48c.1.2 1 .07 1.3-1.27.2-1.3-.47-2.87-.47-2.87s-.87-.4-1.04-.37l-.16.03z"/><ellipse cx="44.22" cy="43.18" fill="#404040" rx="4.69" ry="4.36"/><ellipse cx="55.94" cy="43.1" fill="#404040" rx="4.39" ry="4.38"/><path fill="#300" d="M48.88 42.2h2.7s.47.63.07 2.04c-.2.03-2.8.06-2.8.06s-.3-.9.03-2.1z"/><ellipse cx="44.17" cy="43.4" fill="#9c0000" rx="3.11" ry="3.01"/><ellipse cx="55.79" cy="43.17" fill="#9c0000" rx="3.11" ry="3.01"/><g><path fill="#190000" d="M38.55 44.22s.43.64 1.26.7c.02.13.4.98.4.98s-1.47.28-1.66-1.68zM48.74 43.96s2.97-.19 3.04-.64c.03.24-.02.83-.02.83l-3 .19zM60.22 42.73s.78-.3.7-1.42c.2 1.5.6 3.26-.85 3.97-.11-.14-.2-.33-.2-.33s.46-.35.35-2.22z"/><path fill="#600" d="M53.01 44.05s-.1-3.14 2.84-3.3c2.24.2 2.6 1.34 2.71 1.55.12.22-.64-2.14-2.8-2.07-2.18.07-3.6 2.31-2.75 3.82zM42.33 45.61s-.97-.87-.94-2.2c.02-1.32 1.06-2.36 2.67-2.48 1.6-.11 3.07.86 3.16 2.1.15-.51.12-.91.12-.91s-1-1.8-3-1.7c-2 .09-3.26 1.37-3.28 2.74-.03 1.37.28 2 1.27 2.45z"/><path fill="#262626" d="M39.64 43.56s.52 2.9 3.73 3.3c3.22.4 6.38-2.52 4.35-6.78.42.52 2.5 3.62-.35 6.26-1.43 1.04-3.27 2.37-6.68-.03-.6-.7-.97-.96-1.05-2.75zM51.82 43.97s1.4 3.1 4.44 2.7c3.04-.4 4.08-2.83 3.27-5.84.27.13 1.94 3.67-.76 5.61-2.71 1.94-6.49.44-6.95-2.47z"/><path fill="none" stroke="#d8d8d8" stroke-linecap="round" stroke-width=".26" d="M43.16 44.38l1.09-1.5"/><path fill="none" stroke="#d6d6d6" stroke-linecap="round" stroke-width=".26" d="M44.53 43.65l.78-1.18"/><path fill="none" stroke="#ececec" stroke-linecap="round" stroke-width=".26" d="M54.69 44.08l1.23-1.56"/><path fill="none" stroke="#fbfbfb" stroke-linecap="round" stroke-width=".26" d="M56.27 43.37l.64-.88"/><ellipse cx="55.79" cy="44.02" fill="#fff" rx=".11" ry=".12"/><ellipse cx="44.71" cy="42.18" fill="#fff" rx=".11" ry=".12"/></g></svg>