<svg xmlns="http://www.w3.org/2000/svg" viewBox="0 0 317.5 317.5"><g fill="#900"><path d="M121 121.5a11 15 0 0 0-6.6 2.9 9 13.8 0 0 1 3.5-1.1 9 13.8 0 0 1 9 13.8 9 13.8 0 0 1-9 13.7 9 13.8 0 0 1-.4 0 11 15 0 0 0 3.4.7 11 15 0 0 0 11-15 11 15 0 0 0-11-15zM192.4 121.2a11 15 0 0 0-11 15 11 15 0 0 0 11 15 11 15 0 0 0 11-15 11 15 0 0 0-11-15zm1.6 1a9 13.8 0 0 1 9 13.8 9 13.8 0 0 1-9 13.8 9 13.8 0 0 1-9-13.8 9 13.8 0 0 1 9-13.7z"/></g><path d="M115.2 150.6c-2.5-1.1-5-4.9-6.2-9.2a17 17 0 0 1-.6-5.7c0-3.1 0-3.8.7-5.7 1.7-5.2 5.2-8.4 9-8.4 3 0 5.7 2 8 6.3 1.7 3.3 2.5 6.5 2.6 10.5 0 4.4-1.1 7.6-3.5 10.3-1.3 1.4-1.9 1.7-4.5 2.1-2.7.4-4.3.3-5.5-.2zm5.8-2.2c.4-.7.2-1-1-1-1.4-.2-1.6 0-1.3 1 .1.6.2.6 1 .5.6-.1 1.1-.3 1.3-.5zm-4-.4c-.1-1-.3-1-1.2-1.3-1-.2-1 .1 0 1.2 1 1 1.5 1 1.3 0zm6.7-2l1-2 .5-1-.9.3c-.5 0-1 .3-1.2.6-.3.4-.5 3-.2 3l.8-1zm-2.3-1.2c0-.8 0-.9-.7-.9l-1.6-.1c-.8-.2-.8-.2-.8.7 0 .5 0 1 .2 1.1 0 .1.7.2 1.5.1 1.3 0 1.3 0 1.4-1zm-4.7-.4c0-.9-.1-1-1.1-1.2l-1.2-.2c-.3.3.3 1.8.8 2 1.1.5 1.5.3 1.5-.6zm-4-1.7c-.2-.4-.4-.6-.4-.4-.2.3.4 1.5.6 1.3 0 0 0-.5-.2-.9zm8.9-1.4V140c-.1-.2-1-.3-1.9-.3H118v1.1c0 .7 0 1.3.2 1.4l1.7.1h1.5zm3.3.2c.6-.3 1.2-1.9.9-2.4l-1.4.2-1.2.3-.1 1.3c-.1 1.2 0 1.2.5 1l1.3-.4zm-8.2-.8c0-.7-.2-1.3-.3-1.5-.4-.3-2.4-1-2.5-.8v1.4c.2 1.1.3 1.3 1 1.6 1.5.7 1.8.6 1.8-.7zm-4.3-1.6c0-1.3-.4-2.3-1-2.3-.5 0-.2 2.8.2 3.3.6.7.8.4.8-1zm9.3-3V134l-1.6-.2-1.7-.1-.2 2.2v2l.7.2 1.7.2h1zm3.9 1a9 9 0 0 0-.4-3.4c-.2-.3-.5-.4-1-.2l-.9.2v4.4l1-.3c.7-.2 1.2-.5 1.3-.7zm-9-1.7v-2.1l-1.2-.4-1.4-.3c-.1 0-.2.9-.2 2v2l1.1.4c1.8.9 1.8.8 1.7-1.6zm-4.2-1.8c0-1.2 0-1.9-.3-2.1-.5-.4-.6-.2-1 1.7-.1 1-.1 1.3.3 1.8.9.8 1 .6 1-1.4zm9.4-1.9c.4-1 0-1.7-1-2l-1.6-.2c-.5-.1-.6 0-.8 1v1.5c0 .2.9.3 1.7.3 1.4 0 1.6 0 1.7-.6zm2.8 0c0-.5-.8-1.8-1-1.7-.2.1-.3.6-.3 1.1 0 .8 0 1 .7 1 .3 0 .6-.2.6-.4zm-7.7-1.5V129l-1-.3c-1.4-.4-1.5-.4-1.7.5-.3 1.6-.2 1.8 1 2.2l1.3.4c.2 0 .3-.7.4-1.5zm-4.2-.9c0-.5 0-.5-.3-.2-.3.5-.3.8 0 .8.2 0 .3-.3.3-.6zm9.3-2.6c-.2-.3-.9-.9-1.6-1.3l-1.2-.8-.2.8-.2 1.7c.1.8.2.8 1.5 1.1 1.2.3 1.3.3 1.6-.3.3-.5.3-.8 0-1.2zm-4.7.1l.2-1.4c0-1 0-1-.6-1-1 .4-2 1.2-2 1.7-.2 1 2.1 1.6 2.4.7zm73.8 24a5.6 5.6 0 0 1-4-2.2 14.9 14.9 0 0 1-3.2-12c.3-2.9.4-3.6 1.3-6.2 1.4-3.9 4-7 6.4-8.1 2.2-1 3.6-1 5.3-.3 5.5 2.6 8.5 10.3 6.9 18-1 4.8-3.8 9.3-6.6 10.6-1.1.5-3.6.6-6.1.2zm2.6-2.4c.5-.9.2-1.2-1.2-1-2 0-1.5 1.2.7 1.5l.5-.5zm2.8-.6c1-1 1-1.3.2-1.1-.8.2-1.4.8-1.4 1.4 0 .5.6.4 1.2-.3zm-7-2.4c0-.9-.1-1.6-.2-1.7-.3-.3-2-.6-2-.4 0 .5 2 3.5 2.3 3.5v-1.4zm4.7-.8c0-1 0-1-.8-.8l-1.6.1c-.7 0-.8.1-.8.8 0 1 .2 1.1 1.7 1h1.4zm3 .4c.4-.2.7-.5.8-1v-1l-1.1.2c-1 .3-1.1.4-1.1 1.2 0 1 .3 1 1.4.6zm3-2.4c.1-.6.1-.6-.3-.1-.2.2-.4.7-.4.9 0 .5.4 0 .6-.8zm-6-1.4c.2-.6.1-1.2 0-1.3 0-.1-.9-.2-1.7-.1-1.6 0-1.6 0-1.7 1-.1 1.4 0 1.5 1.8 1.5h1.5zm-4.8-.4v-1.2l-1.4-.3-1.4-.3c-.1.1.2 2.3.3 2.3l1 .4c1.6.5 1.6.5 1.5-.9zm8.1.6c.9-.3 1-.4 1-1.7l-.1-1.3-1.4.4-1.2.4v1.3c0 1.5.2 1.6 1.7 1zm3.7-2.3c.2-1 .2-2.3 0-2.3l-.7.4c-.3.3-.5.8-.5 1.9 0 1.3 0 1.4.5 1.1.3-.1.6-.6.7-1zm-8-.9l1-.2v-4.4l-1.6.2c-1 0-1.8.2-1.8.2-.2.2 0 4 .1 4.2.2.2 1 .2 2.3 0zm-4-2.3v-2l-.9-.4c-1-.5-1.2-.3-1.4 1.8l-.2 1.7c0 .3 1.3.8 1.9.8.5 0 .6 0 .6-2zm8 1.3c.6-.3 1.2-.6 1.3-.8.3-.4.3-3.5 0-3.7-.1 0-.8 0-1.4.2l-1.2.4v2.1c-.1 1.2 0 2.2.1 2.2l1.3-.4zm3.7-2c.5-.4.5-.7.4-2-.2-1.7-.4-2.1-.9-1.7-.4.4-.6 4-.2 4l.7-.4zm-7-4.4l-.1-1.4s-.8 0-1.6.3c-1.4.3-1.6.4-1.7 1.1-.1 1.4.1 1.5 2 1.4h1.6zm-4.7.6c0-.8-.3-1.5-.6-1.5-.2 0-.7 1.4-.7 1.9l.6.2c.5 0 .7-.1.7-.6zm8.3-.2c.9-.3 1-.6.8-1.8-.2-1.1-.2-1.1-1.2-1-1.6.4-1.7.5-1.6 2 0 1.5.1 1.5 2 .8zm2.8-1.5l-.3-.6c-.2-.3-.2-.3-.2.2 0 .3 0 .6.2.6s.3 0 .3-.2zm-6.7-2v-1.6c-.3-1.7-.6-1.7-2.3-.2-1.2 1-1.2 1-.8 2 .2.6.3.6 1.5.3.8-.1 1.5-.4 1.6-.5zm3.2-.7c.7-.3.9-.5.8-.9-.1-.6-1.2-1.4-2-1.5-.7-.1-.7 0-.6 1 0 1.8.2 2 1.8 1.4zm-66.7 16a30.6 30.6 0 0 0 0-10.9 25 25 0 0 0-1.1-3.6c-1-2.2-.9-3.4.2-3 .5.3 2 3.7 2.5 6.1.6 2.5.6 8.8 0 10.5-.4 1.3-1.3 1.8-1.6.9zm51.2 0c-1.3-.9-1.5-7.8-.3-12.2.6-2.6 2-5.4 2.4-5.4 1 0 1 .7.3 2.3a24.8 24.8 0 0 0-1.6 13c.4 1.8.4 2.7 0 2.7l-.8-.4z"/></svg>