<svg xmlns="http://www.w3.org/2000/svg" viewBox="0 0 101.6 101.6"><path fill="#9c0000" d="M40.33 46.04s5.5 4.42 8.29-1.51c.23-.12 2.9-.34 2.9-.34s3.17 6.34 8.37 1.14c.26-.21 1.67.05 1.34-3.88-.07-.02.52.31.36 2.04-.17 1.72-.84 2.04-1.36 2.26-.13.05-.23.08-.32.13-2.82 3.17-6.17 2.1-7.8.23-.59-.62-.56-1-.87-1.18-.3-.2-1.42-.29-2.1.16-.34.5-.48.62-.48.62s-.65 1.53-2.66 2.13c-1.78.54-3.7.32-4.97-.67-1.45-1.14-1.65-1.27-1.65-1.27z"/><path d="M42.67 47.64a4.73 4.73 0 0 1-1.98-1.08c-.3-.28-.52-.42-.6-.38-.22.08-.95-.29-1.27-.63-.45-.51-.64-1.56-.47-2.73.15-1.08.4-1.46 1.23-1.8.37-.15.53-.28.8-.64a4.9 4.9 0 0 1 2.5-1.74c.8-.24 2.2-.2 2.99.07a4.63 4.63 0 0 1 2.95 2.75c.19.54.22.55 1.56.53l.99-.02.14-.44a4.8 4.8 0 0 1 4.37-3.09c1.15 0 2.37.51 3.19 1.34.34.34.58.52.66.5.2-.09.93.17 1.16.4.3.3.48 1.02.55 2.09.04.77.03.97-.13 1.5-.13.42-.25.65-.45.81-.32.27-.72.48-.85.46-.06-.02-.38.24-.7.57a4.51 4.51 0 0 1-3.47 1.42 4.2 4.2 0 0 1-3.13-1.18c-.44-.42-1-1.26-1.15-1.7-.08-.25-.13-.3-.28-.25-.1.03-.68.1-1.3.15l-1.1.1-.29.56a6.02 6.02 0 0 1-1.85 1.98c-.8.44-1.33.57-2.42.61-.89.03-1.1.01-1.65-.16zm2.65-.39a4.42 4.42 0 0 0 2.46-1.65c.63-.83.68-1.06.74-3.53.02-.64-.71-1.73-1.55-2.31-1.97-1.36-4.86-.95-6.19.86a5.11 5.11 0 0 0-1.05 3.19c.08.9.35 1.45 1.07 2.17.87.87 1.36 1.09 3.06 1.37.48.09.92.05 1.46-.1zm-2.14-.88c-.87-.26-1.26-.48-1.68-.94a2.43 2.43 0 0 1-.72-1.91 3.2 3.2 0 0 1 1.35-2.73 3.07 3.07 0 0 1 1.9-.63c2.74-.18 4.4 2.1 3.24 4.46a3.47 3.47 0 0 1-3.03 1.94c-.23 0-.71-.09-1.06-.2zm2.24-.57a3.6 3.6 0 0 0 1.45-1.5c.2-.4.24-.6.24-1.16 0-1.06-.4-1.7-1.39-2.22-.43-.22-.53-.24-1.44-.24-.9 0-1 .02-1.4.23-.75.4-1.24.99-1.49 1.77-.2.67-.2 1.06.02 1.66.33.89.62 1.17 1.58 1.51a3.4 3.4 0 0 0 2.43-.05zm11.65 1.12a4.19 4.19 0 0 0 2.7-2.15c.82-1.66.05-4.06-1.66-5.2a4.26 4.26 0 0 0-6.06 1.73c-.24.5-.25.56-.15.87.08.22.1.6.06 1.24-.04.84-.03.95.16 1.35a4.76 4.76 0 0 0 2.12 2.02c.95.4 1.77.44 2.83.14zm-2.22-.72a3.57 3.57 0 0 1-2.32-2.91c-.07-.46.1-1.24.35-1.68.27-.47.8-.94 1.38-1.21.44-.2.6-.41 1.56-.41 1 0 1.2.17 1.67.41.63.32 1.03.9 1.38 1.55.25.48.28.74.3 1.34.03.54-.12 1.09-.3 1.43-.33.62-.72.92-1.51 1.25-.56.24-.8.3-1.44.32-.5.02-.87-.01-1.07-.09zm2.07-.57c.97-.33 1.28-.48 1.62-1.25.36-.82.17-1.8-.39-2.62-.3-.45-.55-.77-1.14-1a2.75 2.75 0 0 0-1.3-.2c-1.24.05-2.1.64-2.52 1.58-.35.82-.07 1.98.67 2.78a2.8 2.8 0 0 0 3.06.7zm-17.21-.36a4.4 4.4 0 0 1-.17-3.24c.1-.27.15-.5.13-.53-.08-.08-.5.3-.68.59-.15.25-.17.44-.17 1.43 0 .9.03 1.2.14 1.4.2.37.57.68.85.7.03.01-.02-.15-.1-.35zm20.77-.55c.3-.34.41-.8.4-1.7 0-1.03-.12-1.75-.3-1.96-.17-.18-.62-.38-.7-.3-.02.02.05.27.17.53.12.27.26.66.31.87a5.78 5.78 0 0 1-.16 2.64c0 .12.13.08.28-.08zm-10.24-1.85s0-.28-.16-.37c-.09-.06-.34-.08-.34-.08-.72-.04-.82.12-.82.93 0 0-.02.55.12.68.14.13.58.07.58.07s.44-.02.54-.12c.15-.16.08-1.1.08-1.1zm1.43.74c.01-.08.04-.64-.05-.96-.06-.22-.1-.23-.52-.23-.72 0-.72 0-.72.8 0 .38-.02.62.08.73.1.1 1.03 0 1.1-.06.06-.05.1-.2.1-.28z"/></svg>