<svg xmlns="http://www.w3.org/2000/svg" viewBox="0 0 317.5 317.5"><g fill="#900" stroke="#900" stroke-linecap="round"><path stroke-width=".238122" d="M117 123.3a7 11.9 0 0 0-2.8 1.1 5.5 10.3 0 0 1 5.4 10.3 5.5 10.3 0 0 1-5.5 10.3 5.5 10.3 0 0 1-1-.2 7 11.9 0 0 0 4 2.2 7 11.9 0 0 0 7-11.8 7 11.9 0 0 0-7-11.9z"/><path stroke-width=".26458" d="M195.3 123.2a7.2 11.7 0 0 0-7.2 11.7 7.2 11.7 0 0 0 7.2 11.7 7.2 11.7 0 0 0 3-1 6 10.3 0 0 1-.5 0 6 10.3 0 0 1-6-10.2 6 10.3 0 0 1 6-10.3 6 10.3 0 0 1 2 .5 7.2 11.7 0 0 0-4.5-2.4z"/></g><path d="M112.3 146.5c-3.4-1.8-5.2-5.6-5.2-11.5 0-3.1.3-4.4 1.6-6.4 1.1-1.7 1.6-2 2.8-3a8.4 8.4 0 0 1 3.6-2c1-.3 1.3-.3 1.8-.2 1.7.5 2.9 2.1 3.9 5.1 1.5 4.8 1.6 9.5 0 13.5-.3 1.1-1 2-2.1 3.2-1.7 1.7-2.1 1.5-3 1.7h-2c-.5 0-.8-.1-1.4-.4zm4-2.7c1.5-1 2.8-4.8 2.8-8.3 0-3.2-1.4-8-2.7-9.2-.4-.4-.5-.4-1.3 0a14 14 0 0 0-4.9 5.3c-1.3 3.8.4 11.2 2.8 12.4 1 .5 2.3.5 3.3-.2zm-4.5-4.4c-.5-.5-.5-1-.5-3.5 0-3.1.3-4.5 1.2-4.8.6-.2 1.5.3 1.6.9a45 45 0 0 1-.4 7.6c-.4.5-1.4.4-2-.2zm84.6 7.2c-1.2 0-1.5-.2-2.6-1.2-.7-.7-1.6-2-2-2.9-2.2-4.7-1.5-12.9 1.4-17.3.7-1 .9-1.5 2-1.9l1.2-.2 1.4.2 1 .7c.8.5 3.2 2.3 4.5 4 1.6 2.2 2 3.6 2 7 0 4.5-1 7.6-3 9.9-1.4 1.6-2.7 2-5.9 1.7zm3.8-3c.6-.6 1-1.3 1.6-3 .6-2 .7-2.8.7-5.4 0-2.7 0-3.2-.6-4.2-.8-1.5-2.4-3.3-4-4.3l-1.4-.9-.7.8c-.4.5-1 1.9-1.5 3.2-.7 2.1-.8 2.7-.8 5.7 0 4.2.5 5.8 2.1 7.5 1 1.1 1.3 1.2 2.5 1.2 1 0 1.5-.1 2.1-.7zm-1.4-4c-.2-.1-.4-2-.4-4 0-3 0-3.9.3-4.2.5-.6 1.3-.4 2 .4.4.7.5 1.2.5 3.8 0 2.4 0 3-.5 3.6-.5.8-1.5 1-2 .4zm-77.5 5c-.1-.3.1-1 .5-1.8.7-1.2.8-1.7 1-4.1 0-1.6.2-3 .3-3.2.3-.4.9-.4 1.4.1 1.2 1.2-.3 8.6-1.9 9.2-.7.3-1.2.2-1.3-.2zm68-.2c-1.3-2-2-5.9-1.6-8.3.2-.8.3-1 .9-.8.7 0 .7 0 1 3 .2 2.6.4 3.4 1 4.5s.7 1.5.4 1.8c-.4.6-1.2.5-1.7-.2z"/></svg>