<svg xmlns="http://www.w3.org/2000/svg" viewBox="0 0 317.5 317.5"><g fill="#900"><path d="M126.7 132.9a5.4 5.5 0 0 0-5.4 5.5 5.4 5.5 0 0 0 5.4 5.6 5.4 5.5 0 0 0 5.3-5.6 5.4 5.5 0 0 0-5.3-5.5zm-.5.9a3.2 3.7 0 0 1 3.2 3.7 3.2 3.7 0 0 1-3.2 3.7 3.2 3.7 0 0 1-3.3-3.7 3.2 3.7 0 0 1 3.3-3.7zM146.3 134.3a5.2 5 0 0 0-5.2 5 5.2 5 0 0 0 5.2 5 5.2 5 0 0 0 5.3-5 5.2 5 0 0 0-5.3-5zm-.5.7a3.2 3.7 0 0 1 3.3 3.7 3.2 3.7 0 0 1-3.3 3.7 3.2 3.7 0 0 1-3.2-3.7 3.2 3.7 0 0 1 3.2-3.7zM136.3 123.8a5.3 5 0 0 0-5.2 5 5.3 5 0 0 0 5.2 5 5.3 5 0 0 0 5.3-5 5.3 5 0 0 0-5.3-5zm-.5 1a3.2 3.7 0 0 1 3.2 3.7 3.2 3.7 0 0 1-3.2 3.8 3.2 3.7 0 0 1-3.2-3.8 3.2 3.7 0 0 1 3.2-3.7zM177.4 123.7a5.2 5 0 0 0-5.2 5 5.2 5 0 0 0 5.2 5 5.2 5 0 0 0 5.2-5 5.2 5 0 0 0-5.2-5zm-.5.8a3.2 3.7 0 0 1 3.2 3.8 3.2 3.7 0 0 1-3.2 3.7 3.2 3.7 0 0 1-3.3-3.7 3.2 3.7 0 0 1 3.3-3.8zM167.4 134.5a5.2 5 0 0 0-5.2 5 5.2 5 0 0 0 5.2 4.9 5.2 5 0 0 0 5.2-5 5.2 5 0 0 0-5.2-5zm-.4.6a3.2 3.7 0 0 1 3.2 3.7 3.2 3.7 0 0 1-3.2 3.8 3.2 3.7 0 0 1-3.2-3.8 3.2 3.7 0 0 1 3.2-3.7zM187.2 134.2a3.2 3.7 0 0 1 2.6 3.7 3.2 3.7 0 0 1-3.2 3.7 3.2 3.7 0 0 1-3.2-3.7 3.2 3.7 0 0 1 1.8-3.4 5.2 5 0 0 0-3.4 4.7 5.2 5 0 0 0 5.2 5 5.2 5 0 0 0 5.2-5 5.2 5 0 0 0-5-5z"/></g><path d="M125 143.1c-1-.5-1.7-.7-2.7-1.5-.7-1.3-1.2-2-1-3.7.1-1.7.9-3.2 2-4 2.4-1.7 4.7-1.7 6.6.1l.8 1.2.4 2.2c.3 2 0 2.3-.7 3.3a5.2 5.2 0 0 1-5.3 2.4zm2.5-3.6c.7-.7.8-1 .8-2 0-1.5-.5-2-1.7-2-2 0-3.3 1.5-2.7 3.1.3 1 1.3 1.6 2.3 1.6.3 0 1-.3 1.3-.7zm17.8 3.9c-.8-.1-1.3-.3-1.8-.5-1.6-.8-2.7-1.7-2.7-3.7 0-1.5.5-2.7 1.6-3.7 1.1-.9 2.3-1.2 4-1 2.7.3 3.9 1.8 4 4.8 0 2-.7 2.5-1.9 3.2-.8.5-1.9.9-3.2.9zm1.7-2.8c1.4-1.4.4-3.7-1.6-3.7-1.7 0-2.7 1.7-1.9 3.3.5.9.8 1 2 1 .6 0 1-.1 1.5-.6zm16.8 2.3c-1.6-1-2.1-4-1-6.1.8-1.5 1.7-2.2 3.4-2.3a5 5 0 0 1 4.3 1.5 4.2 4.2 0 0 1 1.1 4.4c-.3 1.5-1.2 2.6-2.7 2.8-1.7.3-3.6.5-5-.3zm4.6-2.5c.9-1 .9-2.3 0-3.2-1.3-1.3-3.8-.5-3.8 1.3 0 2.2 2.3 3.3 3.8 1.9zm15.7 2.1a6 6 0 0 1-2.6-6.6c1.2-4.2 6.8-4.3 9-.2 1.5 2.7.7 4.4-1 6.3-.3.5-1.4 1.1-2.6 1.1-1 0-1.7.1-2.8-.6zm3.7-3.2c.8-1 .8-2.1-.2-3-.5-.6-1-.8-1.6-.8-1.2 0-1.5.2-1.8 1.1-.5 1.3-.4 2 .5 2.9.7.6 1 .7 1.6.6.5-.1 1.2-.5 1.5-.8zm-53-6.5c-.5 0-1.2-.4-1.6-.6a4 4 0 0 1-2.2-3.5c0-1 .6-3 1.4-3.8 1.5-1.4 5-1.5 6.5-.2 1.8 1.7 1.9 5.6.1 7.1a5 5 0 0 1-4.3 1zm1.6-2.4c2-1 1.4-4.2-.8-4.2-2.4 0-3.2 3-1 4.2.6.4 1 .4 1.8 0zm39.4 2.5c-1.3-.3-2-.8-2.8-1.9-1-1.5-1-3.3-.2-5 1.2-2.3 3.8-3 6.5-1.6 2.4 1.2 3 3.4 1.4 6.1-.5.9-1.3 1.6-1.7 1.8-.9.5-2.4.8-3.2.6zm2.5-2.7c1.6-1.5.5-4.3-1.6-4.3-1 0-2.3 1.3-2.3 2.2 0 .7.6 2 1.2 2.3.8.5 2 .3 2.7-.2z"/></svg>