<svg xmlns="http://www.w3.org/2000/svg" viewBox="0 0 101.6 101.6"><path fill="#900" stroke="#900" stroke-linecap="round" stroke-width=".2592884" d="M53.9 42.97c.04.21 0 1.04 0 1.25 0 2.18-1.83 3.33-4.15 3.33-2.3 0-4.16-1.73-4.2-3.88-.16.4-.24.8-.24 1.21 0 2.1 2.06 3.8 4.6 3.8 2.55 0 4.62-1.7 4.62-3.8 0-.67-.22-1.33-.63-1.9z"/><path d="M48.78 47.9l-.96-.22a3.07 3.07 0 0 1-1.85-1.27c-.5-.7-.7-1.4-.68-2.47a4.5 4.5 0 0 1 1.26-3.4 4.42 4.42 0 0 1 3.53-1.4 4.92 4.92 0 0 1 4.53 4.76c0 2.06-1.18 3.5-3.1 4-1.23.18-1.2.2-2.25.1zm2.75-.96c.56-.15 1.31-.66 1.63-1.1.5-.69.69-1.68.49-2.64a3.7 3.7 0 0 0-1.11-2 3.7 3.7 0 0 0-6.4 2.69c0 .88.37 1.85.86 2.31.2.18.48.3 1.47.63.95.32 2.15.36 3.06.11zm-2.07-2.88c-.14-.1-.18-.21-.18-.47 0-.96 1.33-1.16 1.56-.23.07.26-.13.7-.34.78-.26.1-.85.06-1.04-.08z"/></svg>