<svg xmlns="http://www.w3.org/2000/svg" viewBox="0 0 317.5 317.5"><g fill="#900"><path d="M149 135.6l-2.7 2.4-22.6-2.2-5.8 2.5s3.2 21.4 30.4 4.7c.2-.6 2.8-3.5 3.6-6.7-.2-.5-3-.7-3-.7zm-25 3.5l15.5 1s-12.7 9.7-15.5-1zM189 135.8l-22.5 2.2-3-2.2s-2.6 0-2.8.6c.8 3.2 3.6 6 3.8 6.6 27.2 16.7 30.4-4.7 30.4-4.7zm.3 3.3c-2.9 10.7-15.5 1-15.5 1z"/></g><path d="M126.9 148.7c-2.1-.3-3.5-1-4.7-2.3-1.3-1.6-1.5-2.7-.4-3.7l.6-.5-.5-.7c-.3-.4-.4-1-.4-1.1.2-.4-.1-.4-1.5-.4-1.3 0-1.8-.2-2.2-.6-1-1-.6-2.2.8-2.5.5-.1 1.5-.5 2.2-.9 1.2-.5 1.5-.6 2.1-.3.4.2.8.5.8.8.2.6.2.6 8 1.2l9 1c4.6.6 5.6.6 5.6.1 0-.2.9-1.3 2-2.5 2-2.3 2.6-2.6 3.4-1.6.7.7.3 1.8-1 3.4-.7.7-1.4 1.7-1.6 2.2-.6 1.5-1.3 2-3.3 2h-1.7l-1.9 1.8a18.6 18.6 0 0 1-15.3 4.6zm5.6-3c0-.1-1-.2-2.4-.2-2.6 0-4.7-.4-5.5-1.2-.5-.4-.5-.4-.4 0 .5 1.1 3.5 1.8 6.6 1.5 1 0 1.7-.1 1.7-.2zm.9-.4h-.5c-.1.1 0 .2.3.2s.4 0 .2-.2zm1.9-3.3c1.7-.5 2.3-1 1.2-1l-6.1-.5c-3.9-.3-5.5-.3-5.5-.1 0 .4 1.3 1.6 2.1 2 1 .3 6.2.1 8.3-.4zm46.2 6.8c-4.3-.3-8.5-2-11.4-4.8-1.8-1.8-2-1.8-3-1.7a6 6 0 0 1-2.1-.2c-.8-.3-1.1-.6-1.6-1.7a8 8 0 0 0-1.5-2.2c-1-.9-1.6-2-1.6-2.7 0-.7.7-1.4 1.4-1.4.5 0 3.6 3.2 4.2 4.3.4 1 .7 1 5.8.3l9-1c8-.6 7.9-.6 8-1.2.1-1 1.5-1.2 3-.4l2.2.8c1.4.3 1.8 1.6.8 2.5-.4.4-.9.6-2 .6-1.5 0-1.5 0-2 1.1l-.6 1.1.6.5c.4.4.6.7.6 1.6 0 1-.2 1.2-1.3 2.3-1.8 1.8-4.4 2.4-8.5 2.2zm5.2-3.5c.7-.2 1.3-.6 1.5-.9l.2-.5-.7.5c-1.1.8-2.6 1.1-5.4 1.2-2 0-2.3 0-1.3.2 1.6.2 4.4 0 5.7-.5zm-7.3 0h-.5c0 .1.1.2.4.2.3 0 .3 0 .1-.2zm6.2-3.1c.9-.4 2-1.5 2-2a72.1 72.1 0 0 0-12.3 1.1l2.4.8c2.7.6 6.7.7 8 0z"/></svg>