<svg xmlns="http://www.w3.org/2000/svg" viewBox="0 0 101.6 101.6">
  <g fill="#980000" stroke="#980000" stroke-linecap="round">
    <path stroke-width=".26458" d="M40.4 42.3a1.6 1.6 0 0 0-1.6 1.6 1.6 1.6 0 0 0 1.6 1.6A1.6 1.6 0 0 0 42 44a1.6 1.6 0 0 0-1.6-1.6zm-.1.4a1.1 1.1 0 0 1 1 1.1 1.1 1.1 0 0 1-1 1.1 1.1 1.1 0 0 1-1.2-1.1 1.1 1.1 0 0 1 1.2-1.1zM59.8 42.3a1.6 1.6 0 0 0-1.6 1.6 1.6 1.6 0 0 0 1.6 1.6 1.6 1.6 0 0 0 1.6-1.6 1.6 1.6 0 0 0-1.6-1.6zm-.1.3a1.2 1.2 0 0 1 1.2 1.2 1.2 1.2 0 0 1-1.2 1.1 1.2 1.2 0 0 1-1.2-1.1 1.2 1.2 0 0 1 1.2-1.2z"/>
  </g>
  <path d="M40 45.3h-.3c-.3 0-.4-.2-.4-.2l-.4-.4-.1-.8c0-1 .6-1.6 1.6-1.6.5 0 .6 0 .9.2.3.3.6 1 .5 1.6 0 .7-.5 1.2-1.2 1.2h-.3zm1-1.2c.1-.3 0-.7-.2-.9-.4-.3-1.2 0-1.2.6 0 .3.3.7.6.7s.7-.1.8-.4zm18 1.2c-.5-.2-.8-.7-.8-1.3 0-.7.1-1 .5-1.4.4-.3.4-.4.8-.4 1 0 1.7.6 1.7 1.6 0 .6-.2.9-.5 1.2l-.5.3h-1.1zm1.2-1c.5-.4.1-1.2-.5-1.2s-1 .8-.5 1.2c.3.3.7.3 1 0z"/>
</svg>
