<svg xmlns="http://www.w3.org/2000/svg" viewBox="0 0 101.6 101.6"><g fill="red"><ellipse cx="2.4" cy="61.1" rx="2.5" ry="4.2" transform="rotate(-42.4)"/><ellipse cx="-71.3" cy="-5.8" rx="2.5" ry="4.2" transform="matrix(-.74293 -.66937 -.6798 .7334 0 0)"/></g><ellipse cx="51.8" cy="42.9" fill="#fff" rx=".7" ry=".8" transform="skewX(-14.5) scale(1 .96796)"/><ellipse cx="83.6" cy="59.3" fill="#fff" rx=".7" ry="1" transform="matrix(.99194 -.12674 -.45558 .8902 0 0)"/><path fill="#900" d="M42.6 46.4s5.8 3.4 3.4-3l-.2.1s1.4 3.9-2.9 2.6l-.3.3zM54.7 47s4.7-1 5.4-6.2a5 5 0 0 1-1.5 4.7c-.4.4-2.2 2-4 1.4z"/></svg>