<svg xmlns="http://www.w3.org/2000/svg" viewBox="0 0 101.6 101.6">
  <path d="M47.8 53.6a43.2 43.2 0 0 1-5.7-1l-.6-.8c-.7-1.2-1.3-1.5-3.2-1.6-1.4 0-2 0-3 .5l-.9.4c-.3 0-2.3-1.7-3.2-2.7a24.7 24.7 0 0 1-4.4-8.4c0-.2.1-.3 1-.6.8-.3 2-.9 2.7-1.4a18 18 0 0 0 5.4-7.4c0-.3.7-1.2 1.4-2a11 11 0 0 1 6.6-2.7 57.2 57.2 0 0 0 7.5 0h5.8c1.8.4 3.5 1 4.7 1.9 1 .6 2.2 2 2.4 2.8.2.7 1 2.2 2 3.6 2 3 3.6 4.3 6.2 5.2.8.3 1 .4 1 .6 0 .3-1 2.6-1.5 3.7-1.1 2.3-2.3 4-3.8 5.5-1 .9-2.2 1.9-2.4 1.9l-.9-.4c-.8-.4-1.4-.5-2.7-.5-1 0-2 .2-2.5.4-.3.2-.5.3-1 1.1a6 6 0 0 1-.7 1 35.2 35.2 0 0 1-10.2 1zm4.2-.8a28.5 28.5 0 0 0 5.6-.8l.7-1c.4-.7.5-.8 1-1.2l1.5-.6 2-.4c.2.1 0 .2-.7.4-1 .2-1 .3.2.3s1.8.1 2.6.5l.7.2c.3-.1 1.6-1.2 2.4-2a21.2 21.2 0 0 0 4.4-8.1c-1.2-.3-2.6-1-3.5-1.7a23 23 0 0 1-5.4-7.6c-.1-.4-1-1.5-1.5-2-1.4-1-3.2-1.8-5.4-2a23 23 0 0 0-4.6-.2 46.3 46.3 0 0 1-6.6 0c-2.2 0-5 .8-6.5 1.8-.8.5-2 2-2 2.4a20.3 20.3 0 0 1-5.6 7.6 12.1 12.1 0 0 1-3.4 1.7 22.1 22.1 0 0 0 4.2 7.8c.5.6 2.2 2.1 2.5 2.2h.7c.9-.5 1.5-.6 2.7-.6 1.2 0 1.2 0 .2-.3-.6-.1-.8-.2-.8-.3 0-.2.3-.1 1.3 0 1 .3 1.7.6 2.3 1 .4.2.6.4 1 1.2.5.7.7 1 .9 1a30.6 30.6 0 0 0 9.1.7z"/>
</svg>
