<svg xmlns="http://www.w3.org/2000/svg" viewBox="0 0 101.6 101.6"><path d="M47.8 53.54l-2.12-.2a28.36 28.36 0 0 1-3.3-.44l-.3-.54a9.7 9.7 0 0 0-.7-1.1c-.42-.54-.54-.63-1.38-1.07a8.9 8.9 0 0 0-3.26-1.12c-1.17-.15-1.4-.28-1.38-.8 0-.28.1-.5.6-1.22.72-1.04.73-1.09.89-4.03.1-1.97.05-4.34-.23-11.14-.07-1.59-.15-3.77-.18-4.85-.06-1.96-.06-1.98.13-2.33.29-.51.48-.7 1.15-1.12 1.73-1.08 5.42-2.18 9.31-2.77 1.8-.27 4.3-.27 6.1 0 2.45.38 4.16.77 6.01 1.38 2.71.9 4.03 1.63 4.45 2.45.22.44.22 1.08-.05 7.74-.21 5.48-.27 10.32-.12 11.9.15 1.79.13 1.72.77 2.67.65.97.78 1.3.66 1.6-.1.3-.35.4-1.35.52-.5.06-1.15.2-1.44.3-.83.27-2.4 1.05-2.75 1.36a7.08 7.08 0 0 0-1.26 1.74c-.24.48-.25.49-1.2.61-2.47.33-4.02.44-6.3.47a62.4 62.4 0 0 1-2.76 0zm5.7-.84a116.98 116.98 0 0 0 3.66-.38c.08 0 .32-.3.57-.7a5.66 5.66 0 0 1 2.44-2.19 8.2 8.2 0 0 1 2.98-1c.88-.1 1.03-.15 1.03-.3 0-.1-.29-.54-1.01-1.57a1.4 1.4 0 0 1-.3-.8l-.13-1.69c-.13-1.53-.07-7.08.12-11.52.07-1.63.15-3.91.18-5.08.06-2.05.06-2.12-.12-2.47-.4-.78-2.32-1.7-5.36-2.57a26.9 26.9 0 0 0-15.98.36c-2.65.87-3.9 1.51-4.25 2.2-.18.36-.19.42-.13 2.27.03 1.05.13 3.77.23 6.06.22 5.07.25 9.16.08 11.28l-.12 1.54-.58.83c-.59.83-.74 1.16-.6 1.29.04.03.44.1.9.16 1.03.12 1.6.3 2.84.93a5.57 5.57 0 0 1 2.47 2.03c.22.36.46.71.52.8.1.12.48.18 2.14.35 3.77.4 5.57.43 8.43.17z"/></svg>