<svg xmlns="http://www.w3.org/2000/svg" viewBox="0 0 101.6 101.6">
  <path d="M47 53.2c-1.8-.1-3.3-.4-4.4-.7-.5-.1-.5-.2-1-.9a27 27 0 0 0-4.2-4c-.8-.3-1-.6-1.9-2.2-.1-.2 0-.4.1-2.2l.3-3.2a30.7 30.7 0 0 0-.5-7V32l.5-1c1.1-2.4 2.9-4.4 4.7-5.5a20 20 0 0 1 10.6-2 31.5 31.5 0 0 1 7.6 1.2 11.7 11.7 0 0 1 5.6 7.3l.2 1V34l-.3 1.8c-.2.4-.2.9-.3 2a46 46 0 0 0 .3 7.3c-.1.9-.7 1.7-1.2 2a25.5 25.5 0 0 0-5 4.8c-.5.7-.7.8-1 1-.6.1-1.5.3-2.7.3a91 91 0 0 1-7.5 0zm7.7-.6a28.3 28.3 0 0 1 2.2-.3c.2 0 .6-.5 1.5-1.8 1.5-2 2.7-3.2 4.5-4.4.4-.3.8-1.6.6-2a20 20 0 0 1-.3-4c-.1-2.4 0-3.8.2-4.5.3-.9.3-2.4.1-3.2-.3-1.4-1-3-1.8-4.1a8.5 8.5 0 0 0-4.8-3.4l-1.2-.2c-2.7-.5-6.4-.6-9-.2a16 16 0 0 0-5.2 1.5 12 12 0 0 0-5 5.6 3 3 0 0 0-.3 1.5l.2 1.6c.4 2 .5 4.5.2 7.5-.3 2.4-.3 2.8 0 3.5.3.5.7 1 1 1 .5 0 .6.1 1.4.9a15.6 15.6 0 0 1 3.4 4c.3.2.4.3 1.2.5 1.2.3 2.7.5 4.3.6l6.8-.1z"/>
</svg>
