<svg xmlns="http://www.w3.org/2000/svg" viewBox="0 0 101.6 101.6">
  <path fill="#ff0101" d="M36.9 46.9s3.5 1.8 5.3 4.8c.4.2-.4 1.8 14.8 1 .3 0 4-5.6 6.5-6.4l.5-2s-.7-4-.3-8.4l.4-2.8s-1.2-6.5-6.3-8.3a33 33 0 0 0-14.8 0c-1.1.3-4 .8-7.2 7.1.4 3 .5 11.8.2 13-.1.4.9 2 .9 2z"/>
  <path fill="#9c0000" d="M36.6 42.7c.4 3.4 4 2.4 6.5 6.5.7 1 1.5.9 1.9 1 .4.1 6 1 10.4 0 1-.2 1-.1 1.5-.8 3-4 4.4-2.8 4.8-5.2.7-3-.6-2.4.8-10.1.3-3-1.2-6.9-4.2-8.8-3-1.1 1.6.5 1.6.5S65 30 63.7 36c0 4-.2 6.8.4 8.2l-1 2.5s-2.4 1.1-6 6c0-.2-8.7 1.3-14.9-.7-.2-.2-1.5-3-4.1-4.5-.5-.3-2-1.3-2.2-2.3l.6-3.3c-.4.9.1-.1.1.7z"/>
</svg>
