<svg xmlns="http://www.w3.org/2000/svg" viewBox="0 0 101.6 101.6">
  <path fill="#ff0101" d="M27.1 39.8s6.2-.8 9.4-9.5c.1-.3 3.2-5.2 12.5-4 .2-.1 3.2 0 3.2 0s8.7-1.2 11.5 4c1.4 2.9 3.9 8.4 9.1 9.6-.1.4-.9 6-7 10.8-.3-.2-5.4-2.4-6.6-.3l-1.1 2s-9.5 1.7-15.6 0c-.2.2-.7-1.6-1.5-2-.8-.4-4.4-.8-6.5.3 0 .3-5.2-3-7.4-11z"/>
  <path fill="#9c0000" d="M27.7 40s1.4 6.4 10 8.7c2.5.8 1.9 1.2 1.9 1.2s-2.4-.3-5 .8c-1.4-1-6.5-5.4-6.9-10.7zM61.3 49.1s6-2.2 10.2-8.4c.1-.2 0-.4 0-.4-.4-.2-1.8-1.2-2.2-1.7-.5-.6 3.6 1.4 3.6 1.4s-1.7 6.6-6.9 10.7c-.9-.4-2.7-1.4-5.5-.8l.8-.8zM41.1 50s0-.5 1.9 1.7c.7.2 6.1 1.8 14.2 0 .1 0 1.6-2 2.5-2L58 52.3s-10.4 2-15.6 0L41.1 50z"/>
</svg>
