<svg xmlns="http://www.w3.org/2000/svg" viewBox="0 0 317.5 317.5">
  <path fill="#fee7c9" d="M134 176.5s-3.5-6.5-2.3-16.4c.2-.1 3.1 1 3.1 1s-.8-4.9 1-11.4c0 1.4.6 12.2 3.9 14.7l2.1-5.3 2.7 2.9 2.2-2.3 1 4 3.8-6.3.6 6.6 3.3-3 4.8 1.4 2.6-7s1.4 2.9 1.7 8c.3.5.7 1.3 3.3-4.7 0-.4 1 3.6 1 3.6l6.8 1 .8-4.7 2.4 4.6 1.7-2.3 2.3 1s.3 6-1.7 9.8c0-.6-1-4.8-1.7-5.8-.3.4-.2 1.7-4.5 1l-.4 6.1s-1.2-.6-2.9-3.7l-1.5 3.2-1.9-6.1-1.9 2.6-1.8-3-2.2 3-2-1.8-.9 7.3-2.4-4.7s-.2 4.8-1.6 7.8c0-.6-1.4-8.6-2.2-10.4l-1.8.4-3.7-1.7-.6 4-2.6-5-.6.2s0 7-1 8.8c-.2.2-.7-.1-.7-.1l-1.8-8.4-2.8 2.7-2.2-.7s-1.6 7.6-1.4 9.1z"/>
  <path fill="#f9d8ac" d="M133.3 173.5s1-7.5 0-12.2c.3-.4 2 5.8 2 5.8s-1.5 7.4-1.3 8.3l-.7-1.9z"/>
  <path fill="#f9d8ab" d="M136 166s2.4 1.3.6-8.3c.6 1.2 1.3 5.1 3 7.1 0 .3-2 3.3-2 3.3zM141.8 159.7s1.2 2.5.9 14l1.3-7.1-.6-5.6zM146.6 168.5s-.2-5.9-.7-7.4c-.1-.6.6-.6.6-.6l1 3z"/>
  <path fill="#f9d8ab" d="M148.4 164s2.2 3 3-3.6c.3-.9.5 7.2.5 7.2s-6.2-1.7-3.5-3.6zM155.7 161.6s1 6.8-1.6 6.8l1 8.6s4.6-11.9.6-15.4zM157.8 168s1.7 2 2-2.6c.2 1.9-.4 9.1-.4 9.1zM160.7 165.3s3-1.2 2.6-6.7c.6-.7 1 6.2 1 6.2l-2 4.1s-2.5-1.6-1.6-3.6zM165.2 165.7s2.6-.8 2.7-6.6l.3 6.6-2.1 3.4zM170.2 162.6s1 2.4-1 4.2c-.6 1.2.7 6.4.7 6.4l1.8-5 .3-4.7zM173.8 163.9s.7 3.7-1.6 3.2c-.2.4-.6 2.8 2.2 6.2l.3-8.4zM175.1 165.8s3.2.1 2.9-3.6c.5 1 1 4 1 4s-1.6 1.1-1.8 1.1c-.2 0-2-1.3-2-1.3zM179.7 165s1.7 2.7 2-1.7c.4.5 1 5.7-.5 8-.3-.3-1.5-6.3-1.5-6.3z"/>
  <g>
    <path d="M154.5 179c0-1.2-.7-7.6-1-9.5-.4-1.6-.4-1.6-1.5-1.2-.8.3-1.8 0-2.7-.9-1-.8-1.3-.4-1.6 1.8l-.6 2.1c-.1.1-.3 0-.3-.2a18 18 0 0 0-2.3-4.7c-.2 0-.3.7-.3 1.5 0 2.1-.4 5-1 6.1-.3 1-.3 1-.8.5s-1.3-3.5-1.8-6.4c-.2-1.4-.4-2-.6-2-.2 0-2 2.3-2.2 2.7 0 .2-.5.1-1.1-.1l-1-.4c-.4.5-1.2 4.3-1.3 6.3l-.2 2.5-1-2a24.7 24.7 0 0 1-2-14.7c.4-.6.6-.7 1.7-.7h1.3l-.1-1.9c-.1-1 0-2.6.2-4 .5-2.3 1.4-5 1.7-4.7 0 .2.4 1.6.6 3.3.6 3.6 1.4 7.1 2 8.7.5 1.5 1 1.4 1.8-.5.4-1.1.7-1.5 1.2-1.7 1-.3 1.5 0 2.2 1.3l.7 1 .8-1c.4-.8.7-1 1.2-.9.7.1 1 .4 1.3 2.2 0 .4.2.7.4.7.6 0 2.7-5.5 3-7.9.1-.6.3-1.1.4-1.1.3 0 .8 3.8.8 6.4 0 2.7.3 3.6.8 2.6.6-1.2 1.7-2.1 2.4-2.1.4 0 1.2.3 1.7.7.8.6 1.3.7 2 .7.6-.1 1.1-.4 1.3-.6l1-3.3c1-4.8 1.1-5 1.4-4.7.4.4 1.5 5.4 1.7 7.7a7 7 0 0 0 .4 2.1c.4 0 1.6-2.5 2-4.3l.5-2.2c.2-.2 1 2.6 1 3.2 0 .3 0 1 .2 1.4.2.6.4.8 1.3.8 1.2 0 1.7.1 2.2.5.2.2.8.4 1.3.5 2 .4 1.9.1 2.1-1.5l.2-1.2s0-1.8.5-1.7c.4.1.2 1.7.2 1.7v1l-.1 1.2c-.3 1.9-.7 1.6-.8 2.2l-.2 2 .8.3c.6 0 1.2 0 1.5-.2.6-.3.5-1.1.5-1.7 0-.6 0-1.3-.2-1.7a12 12 0 0 0-.8-2c-.3-.7-.2-.8-.6-1.3-.4-.4-.5-1.9-.2-1.4l1.2 1.8 1.1 1.8c.2 0 .5-.3.7-.6.7-1.1 1.8-1.1 3 0 .2.3.3 1 .3 3.2 0 3-.5 5.5-1.6 7.2l-.6 1-.1-1.1c-.1-1.7-.6-3.7-1-4.2-.3-.4-.4-.4-1.3.1a3 3 0 0 1-1.9.4c-.8-.2-.8-.1-1.1 1.2-.2.7-.3 2.1-.3 3.2 0 1-.1 1.8-.2 1.8-.3 0-2.3-2.6-2.5-3.2-.2-.6-.6-.6-1-.2l-1 2.7-.7 2.4-.4-3c-.6-4.1-.8-4.8-1.2-4.8-.4 0-1 1.1-1 1.7 0 .3-.1.4-.3.4-.6 0-1.5-1.2-1.7-2.3-.2-1.3-.4-1.4-.9-.3-.8 2-2 2.6-2.7 1.5-.4-.5-.5-.5-.7-.2-.1.2-.3 1-.3 1.6a22 22 0 0 1-.8 5.1l-.3 1.1-.9-2.2c-.4-1.3-.9-2.1-1-1.9-.8 3-2.4 7.4-2.6 7.4 0 0-.2-.4-.2-.9zm1.7-7.3c.7-5.7.8-9 .4-9.6-.6-.8-1.7-.3-2.6 1.1-1 1.4-1 1.6-.4 2.6a38 38 0 0 1 1.7 10.1c0 1.2.6-1.2 1-4.2zm-22 1.5l.3-3.1c.5-2.4.2-5.2-.7-8.1-.3-1-1.4-1.7-1.8-1-.7 1 0 8.4 1 11.8.7 2 1.1 2.2 1.2.4zm8.9-6c0-4 0-5.7-.2-6.3-.5-1.2-1-1-1.7.9l-.5 1.6.5 2c.3 1.3.7 3 .7 4 .4 3.9.5 4.3.8 3.8.2-.4.3-2.7.4-6zm16.4-1.8c0-2.7-.4-3.3-.9-1.5l-.6 1.8c-.4.6-.3 1 0 2.5a45.4 45.4 0 0 1 1 4.2c.2.4.6-4.2.5-7zm14.8 3c0-3.9-.3-4.6-1.3-4.6s-.7 5.2.4 7.4c.8 1.5 1 1 1-2.9zm-3.6 1.3c.2-.9.3-2.6.3-3.9 0-1.9 0-2.4-.4-2.7-.5-.5-.5-.5-1 .1-.4.5-.5 1-.5 2 0 1.8.8 6 1 6 .2 0 .4-.7.6-1.5zm10.7 0l.3-3.2c.2-4.3-.3-5.6-1.7-4.2-.7.7-.8 2-.2 2.9.4.6 1 3 1 4.1 0 1 .3 1 .6.4zm-34.6-4.3c0-3-.1-4.5-.5-4.5l-1 1-.7 1.1.5 1.3a48 48 0 0 1 1.5 4c.2 0 .2-1.3.2-2.9zm16.3 1.1c.8-1.6.9-3.2.4-7-.3-2.5-.7-3.4-.9-2.3-.6 3-.8 3.9-1.3 5-1.1 2.5-.7 5.6.9 5.8 0 0 .5-.6.9-1.5zm4 .7c.6-1.6 1-5.4.7-6.7-.3-1.2-.3-1.1-1 1.1-.2.8-.7 1.8-1 2.1-.3.5-.4 1.1-.4 2 0 2.2 1 3.1 1.6 1.5zm-28.5-1.4l.6-.9-.8-1.4c-1-2-1.9-5-2.1-8.2-.1-1.5-.3-2.7-.4-2.8 0 0-.3.3-.5.9-.2.7-.3 2.4-.3 5.7 0 4.4 0 5 .6 6.1 1 2.2 1.8 2.4 3 .6zm12.7-2.6l-.1-4-.7 1.3-1.4 2.5-1 1.6c0 .9 2 2.6 3 2.6.2 0 .2-1 .2-4z"/>
  </g>
</svg>
