<svg xmlns="http://www.w3.org/2000/svg" viewBox="0 0 317.5 317.5">
  <path fill="red" d="M153 152.8c-9.3 0-10-1.7-10-1.7s-8 6-11.6 11.1c-5.8 8-1.6 18.7-1.6 18.7l2 12-1.2 8s-4.4 10.2-8.2 4.3c-3.7-5.8 2.4-7.4 2.4-7.4s-.7-2.3-2.4-2.4c-10.4 1.2-6.7 11.2-2.1 14.3 6.1 4.5 9.9-.2 10.3 0-.2 4 1.4 6.2 1.4 6.2s.2 1.2-1.6 7c-3.6 6.1-6 6-9 5.2-5.4-1.6-1.4-7.2 2-5.6 4 2.3 3.3-3.9-.2-4.8-14.8-2.6-9.9 11.9-9.6 12.1 9.7 10.2 18 1.1 18.6 1 0 8.3 3.3 9.5 4.1 9.7-2.3-11.9 6.7-28.8 7.6-29.2a29 29 0 0 1-1 12.5c-.2 12.5 7.7 19 8.1 20-.4 5.7-4.1 4.7-4.1 5.3 4.2 4.5 7-4.3 7.4-4 3.8.6 3.7-2.6 3.7-2.6v-7l3.6 4.2c1-.8 1.7 7.6 2.5 8 1.9-4.6 1.2-6 1.2-10-2.1-6.8-2-12-1.2-12.5 5 4.2 3.3 8.8 3.3 8.8s-1.4 1.3-.6 2.3c1.2 1.2 4.7-2.2 4.7-2.2s1 1.7 5 3.2c12.6 2.4 11.4-7 11.4-7.9-5-6.1-8.6-2.8-8.4-2.4 1.4.8 3 1.5 3 4.6 0 3-5.3 1.2-5.6 1-4.6-7.6 1-21.2.8-21.9 4.2 4.7 11 6.7 12.2 7 7.7-2 10-11.8 10-12.3-2.7-8.4-5.2-9.4-5.2-9.4s-5 1-6.4 1.5c-4.3 5 .5 6.7.4 6.4 1.6-6 4.1-2.4 4.3-1.7.9 5.2-1 6.7-2.8 7.5-4.4 1.4-9.1-8-9-8 2.8-7.3.8-21 .3-22 5.7-16.4-4-21.8-4.6-22.3-4.4-1.7-6.3-5-6.7-5.5-7.9 1.3-7.2 1-17.2 1zm6.9 37.3l2.4 8-3.6 9.2a20.4 20.4 0 0 0 1.7 11.2l-2.2 3s-2.7-6-3.3-13c.4-15 5-18.4 5-18.4zm-8.2 26.8s1.2 8.5 2 10.5c.6 6.7-1.3 11.3-1.3 11.3-5.8-6-3.9-13.7-3.9-13.7z"/>
  <g fill="#9c0000">
    <path d="M181 201.6s3.7-12.2.5-20.7c-.5.8-5.1 14.4-.4 20.7z"/>
    <path d="M194.3 196s8.7 12.6-4.5 19.7c-.4.1-4.8 1-12.2-5A24.9 24.9 0 0 1 170 192c.4-9.2 1.2-13.9-.3-17.7-.6-.2-.6 16.3-.6 16.3h-.4s-.1 3.8-3.1 13.8c-.6 3-2.3 7.4 1.2 15.8.5 1.4 6.7 8.2 1.2 14.6-1.9 1.6 1.3 1.2 1.3 1.2l2-1.8s8.4 7.3 15 1.6c1.9-3 3.2-6.9-1.7-9.3 0 0 5 7.8-2.7 9.5-2 .1-3.8.9-10.2-3.5-.4-.6-.5-7.8-.5-7.8s.7-1.5-2.8-4.6c0-.2 4.6-7 4.5-13 .1-.2.5-.2.5-.2l2.7 3.1s-6 18.5 1.2 23.5c.3 0-4.7-6.6.5-21.5.1-.2.5-.2.5-.2l9.2 5.8s4.3.8 5.5-.4c1.2-1.3 7-6 6.7-12.1-.2-1.7-1-6.5-5.3-9zM156.7 177.8s1.9 3.8 1 4.4l-1.3.8 3 7.1s-5.2 8.3-4.3 18.6c.5 3.6 2.7 12.9 2.7 12.9l-.4 20s-1.5 1.5-4.7-3c0-.6 2-6.1 1-11.3l-1.8-9.9s0-9.7-1-18.2c0-1.5 0-12.5 2.2-16.5 0-.4 3.6-4.9 3.6-4.9zM151.5 243.5l2.2 1.7s-2.9 7.5-6.4 3.7c0 0 2.5.4 4.2-5.4z"/>
    <path d="M156 244.5s-13.1-3.3-11.5-25.5c-.8.7-1.6 5.1-1.6 5.1s1.7 20.7 13.1 20.4zM132.4 233.8l4.5-7.6s-2 8.2-.6 14c-.2-.6-3-.8-4-6.4zM125.8 221.1s-4.5-2-7.8 1.7c-.3 1.7-.5 4.7 2 5 .7.2-1.2-2-1.2-2l.8-2.9 3-.7 2.2 1.3z"/>
    <path d="M116.2 231.4s8.3 3.2 13-.8a39 39 0 0 0 13.4-24.4l2.7-11.4s2-6.6-1.4-15.5c-3.3-8.8 0-15.5 1.2-16.3l1.7-.7 18 .7 3 4.2.2 1.7s-.9-2.5-3.3-4.9l-15.3-.6s-3.3.3-3.4 5c-.1 4.9-.3 6.5 1.5 10.1.3 1 5.1 8.3-3.4 31-4.3 11-6.2 19-18 24.9-4 .1-2 2.1-9.9-3z"/>
    <path d="M130.9 212.7s2.1 1.8 3.2-8.3c.6-6.5-1.4 10.5-1.4 10.5s-1.2.6-1.8-2.2zM130.6 203.6s-2.2 7.9-11.6 4.7a8 8 0 0 0 11.3 1.2l.3-6zM121.1 203s-2-1-.5-4c1-2.2 2.9-2.6 3.7-2.4.4.2.2 1.4.2 1.4l-2.5 1.6zM163.1 228.8s-.8 1.4.3 8.3c1.2 6.8-1 4.8-1 4.8l1.1 5.5s3-3.3 2-11l-2.4-7.6zM150.7 167.1l10.6.3s0 1-5.1 1c-5.1-.2-5.5-1.3-5.5-1.3z"/>
  </g>
</svg>
