<svg xmlns="http://www.w3.org/2000/svg" viewBox="0 0 317.5 317.5">
  <path fill="#900" d="M129.8 164.3l.9 11.6s1.1 4 4.7 5.2c-1-.7 21.6 5.6 41.1-.5.5-.2 4.2-2.2 4.4-6.4.2-4.3-.1-8-.1-8s-.8-.6 2.2-2.5c-.2.2-.5-2.9-.5-2.9l-3-1.3s-42.1.9-45-.5c-1.6.1-4.9.1-5.1.6l-.9 1.7.5 2.2z"/>
  <path fill="#ff0101" d="M130.2 165s1-2 2.2-1.3c1.4.7.6 1.6 0 2-.2.4-1.5 8.1 14.8 10.8 1.4.1 22 .8 30.1-9.9-.2-.5 3.8-4.4 3.5-1.7 0 .2 1.7-.5 1.9-1.5 0-.2-.2-2-5.4-2.3-2.1-.2-31.6 1.3-33.5.7l-6.5-.7c-.6 0-6.6-.6-8.2.7 0 .5-1 .6 1 3.2z"/>
  <path fill="#900" d="M150 165s6.8 2.4 14.8-.2c0 .2 1-.2 1.2.5.3.7-.4 1-.6 1.2-.2.2-7 2.6-15.6.2-.2 0-.8-.6-.7-.8 0-.3 0-.7 1-.8z"/>
</svg>
