<svg xmlns="http://www.w3.org/2000/svg" viewBox="0 0 317.5 317.5">
  <path fill="red" d="M138.4 153.1s20.2-2.8 36.5 0c-.1.7 5 16.2-1.3 32.5-.7.7-2.1 4.2-7.3-.3-1.1-.9-2.7 6.5-10 .8-.3-.9-2.4 5.2-10 .1-1-1-5.3 3.4-7.9-.9-1.4-2-5.8-12.1 0-32.2z"/>
  <g fill="#9c0000">
    <path d="M166.1 156.4s3.2 4.2 1.4 21.7c-1.4 14.5 8.8 4.6 7.7 4 .3 1.6-1.6 3.5-1.6 3.5l-2.1 2.1-5.2-2.4zM155.4 169.4s1 3.4 2.2 12c1.4 7.9 7.9 4.8 7.4-.9 1.3 2.2-2.1 8-2.1 8l-3.6-.6-3.3-3.6-5 3.8-4.3-3s10 6.4 8-9.8l.7-6zM137.9 184.5s7.7 5.9 7.2-8.5c1.5 6.8 1.5 9.2 1.5 9.2l-4.1 2.6-3.2-.8-1.4-2.2z"/>
  </g>
</svg>
