<svg xmlns="http://www.w3.org/2000/svg" viewBox="0 0 317.5 317.5">
  <g fill="red" stroke="red">
    <path stroke-width=".26458" d="M130 161.8l.1.8c3.7 3.2 12.7 9.1 27.6 7.3 17.8-1.3 23.7-3.2 23.2-7.5l-4.3-.7c-8.2 1-23.3 3.4-46.6 0z"/>
    <path stroke-width=".26458" d="M130 161.8l.1.8c3.7 3.2 12.7 9.1 27.6 7.3 17.8-1.3 23.7-3.2 23.2-7.5l-4.3-.7c-8.2 1-23.3 3.4-46.6 0z"/>
  </g>
  <path fill="#950000" stroke="#950000" stroke-width=".26458" d="M185.1 161.9l-4.3.6v.5c.5 4.3-15 5.9-23 6.9a34.9 34.9 0 0 1-27.7-7.3l.3 3.9 6.2 6.8s12 6 40.2 0c4.5-2 4.3-.8 9.3-6.3l-1-5.1z"/>
</svg>
