<svg xmlns="http://www.w3.org/2000/svg" viewBox="0 0 317.5 317.5">
  <path d="M169.4 195l-.3-7.1a44.3 44.3 0 0 0-1.8-13.2c0-.6-.4-1.2-.6-1.5-.3-.2-.5-.7-.5-1 0-.8-.7-1.8-1.2-1.8-.4 0-.6.6-.8 3.2l-.5 3-.3 1.3-.6-2.7c-.6-2.4-.8-3-1.6-3.7-.7-.7-.9-1-.9-2l-.2-1.9c-.2-.5-.3-.4-.7 1.7 0 .3-.3.6-.5.6-.7 0-1.2 1.4-1.5 4-1 9.6-.9 9.2-1.2 7.9-.6-2.3-1-5.2-1.1-8.5-.1-2.2-.3-3.3-.5-3.4-.4 0-1.5 2.2-1.5 3 0 .3 0 1-.2 1.6a1853 1853 0 0 1-1 3l-.7-3.5c-.4-2-.8-3.7-1-4-.2-.5-1.2-1.5-1.4-1.5l-.1 1.9c0 1.3-.1 1.9-.4 2.1-.2.2-.4.6-.4 1 0 .2-.1.6-.3.8-.2.2-.3 1.8-.4 4.6-.1 5.5-.4 8.6-.6 7.6a17 17 0 0 1-.3-2.9 50 50 0 0 0-1.2-10.2c-.2-1-.6-1.6-.6-.8 0 .2-.3.7-.7 1.2-.6.6-.7.7-1 .3-.3-.3-.6-1-.7-1.7-.1-1.1-.3-1.4-.7-1.4-.4 0-.7-.4-1-1-.5-1.9-.7-1.3-1.2 4.5a61.3 61.3 0 0 0-.4 6.2c-.1-.1-.6-2.6-1-5.4a65 65 0 0 0-1.4-6.5 4 4 0 0 1-.3-1.9c.1-.4 0-1-.1-1.1-.2-.3-.3-.8-.2-1.6l.3-2c0-1 .6-1.4 1-.8l.2 2.2c0 1 .1 1.8.2 1.8l.9-.7c.7-.7 1.4-.9 2.2-.5.4.1.4 0 .3-.6-.1-.6 0-.8.2-1 .5-.1.8.3 1 1.2.2.6.4.8 1 .8.7 0 .7.2 0 2.2-.5 1.5-.5 1.8-.2 3.4.2 1 .5 1.8.6 1.8.1 0 .4-.4.6-1 .4-1 1-1.3 1.4-.7.2.2.5 1.3.7 2.5.2 1.7.3 2 .5 1.6l.1-1.3.3-1c.5-.8.1-2-.6-2-.5 0-.7-.2-1-1.6l-1-2.2c-.5-.8-.4-1.5.3-1.4.6 0 .8.4 1.6 2.4.6 1.3 1.1 1.3 1.5-.1.4-1.6.6-2 1-2 .3 0 .4.3.4 1 0 .5.1 1 .4 1.2.4.3.5.2.8-.4.3-.6.4-.6.7-.3.4.4.4.7.1 1.7-.3 1.3.1 5.6.6 6.5.4.7.6-2.5.2-4l-.2-3c0-1 0-2-.2-2.5-.1-.6 0-.8.3-.8.6 0 .7.4.8 2l.3 2.7.2 1.2.3-.9c.4-1.2 1.2-1.4 1.8-.4.4.5.5 1.2.5 2.8l.1 4.2c.2 2.8.6 1.7.8-2.3 0-3.6.2-4.2 1-5 .4-.4.7-.8.7-1.1l.6-1.8c.5-1 .8-1.4 1.2-1.4.6 0 .7.3 1 2.8 0 1.2.3 2 .5 2 .7-.2 1 0 1 .4l.1 1c.2.4.2.4.4-.3 0-.5 0-1-.4-1.6-.5-1-.5-2 0-2.1.2-.1.5.2.6.6.3.7.3.7.6.2.2-.3.2-.9 0-2-.2-.8-.3-1.7-.2-2 .2-.6.9-.1 1 .7.2.5.4.8.6.8.5 0 .5.6 0 2-.5 1.3-.5 2.2-.1 2.2.2 0 .6.3 1 .6l1.2.9c.3.2.5 1 .7 2.6.5 4 .7 3.8.8-.4 0-3 0-4 .3-4 .6-.3 2 1.2 2.2 2.2.6 2.7 1 1.7 1-3 0-2.8.1-3.2.5-3.3.4 0 .5.1.5 1.3l.2 2c.3.6.3.5 1-1.8.1-.8.5-1.7.7-2 .4-.5.4-.5 1 0 .5.5.8.6.8 0 0-.2.3-.7.6-1a8 8 0 0 0 1.3-2.2c.4-.9.8-1.6 1-1.6.7-.1.6.5 0 2.4-.7 1.9-.7 2.3 0 2.3.2 0 .5.1.7.3.2.2.4-.3.6-1.7.4-2 1-3.3 1.4-2.9.2.2 0 1.2-.2 3-.7 4.6-.8 4.6-1.4 4.7-.5 0-.7-.1-1-.7-.1-.5-.3-.8-.4-.8a19 19 0 0 0-.5 5.6c0 1.3-.2 3-.4 3.8l-.6 3c-.2 1.4-.2 1.4-.4.5l-.5-5.4c-.2-3.2-.4-4.8-.7-5.4-.7-1.5-1.4-1.7-1.4-.4 0 .3-.1.6-.3.6-.2 0-.2.4-.1 1 .2 1.2-.1 1.8-.9 1.6-.5-.1-.5 0-.5 1.3l-.2 1.8c-.2.6-1.2.5-1.2 0 0-.4-.2-.6-.6-.7-.4 0-.6-.4-1-1.4-.4-1.3-.4-1.2-.6 6.5a298 298 0 0 1-.6 16.4zm9.2-25.6c0-3.1-.1-4.6-.3-4.3a2 2 0 0 0-.2 1c0 .2-.2.7-.5 1-.3.2-.3.4-.1.3.2-.2.3.3.3 1.7 0 1.1 0 2.7.2 3.6.3 3 .6 1.4.6-3.3zm-39.5-2.2c.3-.3.5-.2 1.3.5l.9 1 .4-1.1c.6-1.4.4-1.9-.7-1.8-.4 0-1 0-1.2-.2-.5-.4-1 0-1.7 1.7-.5 1.2-.5 1.4-.2 3.6l.4 2.5c.1.2.2-1 .3-2.8 0-2.3.2-3.1.5-3.4zm-5.3 3l-2.3-7.7c-.4-1.2-.1-1.9.5-1.5.4.2 1.3 3.4 1.4 4.3 0 .4 0 .9.2 1 .3.5.5-.4.5-1.6 0-1.1.3-1.7.7-1.7.6 0 .6.6.2 3-.5 2.8-1 4.7-1.2 4.1zm33.4-3.5l-.4-1.7c-.2-1-.1-1.2.2-1.2.3 0 .6.2.7.4.2.3.4.4.5.2.3-.7 1.7-2 2.1-1.8.3.1.3.2-.2 1l-1.2 2.2c-.6 1.5-1.2 1.8-1.7.9zm-12.6-.8c-.4-.4-.5-.8-.3-1l.2-1.6c0-1.2 0-1.4.5-1.3.3 0 .5.4.6 1.3.2 1.6.4 1.7.8.8.1-.4.6-1 1-1.1.5-.4.7-.3 1 .1.2.3.6.5.9.5.7-.2.8.3.2 1-.6.8-1.4 1-1.7.4-.2-.4-.4-.3-1 .6-.7 1.2-1.5 1.3-2.2.3zm6.3-2.6l-.3-1.4c0-.7.7-.6 1 0l.8 1c.6.4.2 1.4-.6 1.4-.5 0-.7-.2-1-1zm-14.4-.6c-.4-.7-.4-1.6 0-1.6s2 .9 2 1c0 .5-1 1.4-1.3 1.4-.2 0-.5-.3-.7-.8zm-3-1.2c-.4-.5-.5-1.8 0-2.1.1-.1.4 0 .6.3.2.3.5.5.7.5.5 0 .4 1-.2 1.4-.5.3-.7.3-1 0z"/>
</svg>
