<svg xmlns="http://www.w3.org/2000/svg" viewBox="0 0 101.6 101.6">
  <path fill="#fee7c9" d="M45.14 52.59s-1.24-2.8-3.15-2.14c-1.9.67-3.5 1.37-3.7 2.7-.2 1.34 3.1 7.42 6.48 7.19-.24-.33-2.47-5.38.37-7.75z"/>
  <path fill="#f9d8ab" d="M45.17 52.66l-1.67-1.97s-4.85 5.27 1.27 9.75c.06 0 .1-.23.1-.23s-2.74-3.81-.27-6.72c.23-.4.57-.83.57-.83z"/>
  <path fill="#fee7c9" d="M54.96 52.26s2.87 2.33.83 7.91c-.06.07 3 .44 5.72-5.74 0-1.5-.07-1.57-.07-1.57l-2.17-2.1s-1.44-.94-2.88.1c-1.43 1.03-1.43 1.4-1.43 1.4z"/>
  <path fill="#f9d8ab" d="M56.93 50.72s5.48 3.26-.94 9.45l-.16.1s1.87-.3 2.67-1.2c.8-.9 2.87-3.57 3-4.84.14-1.27-.26-1.5-.26-1.5s-1.2-1.88-2.47-2.18c-1.27-.3-1.27-.23-1.84.17z"/>
  <path fill="#fee7c9" d="M44.2 58.96l.8.38-.47.33zM43.86 57.84l.8.38-.47.33zM43.4 56.5l.81.38-.47.33zM43.31 55.31l.8.38-.47.33zM43.55 53.92l.8.97-.47-.02zM56.34 58.32l-.8.38.47.33zM56.6 56.98l-.8.37.47.33zM56.82 55.77l-.8.38.46.33zM56.72 54.73l-.8.38.47.33zM56.04 54.31l-.2-.5-.26.43z"/>
  <g>
    <path d="M43.84 60.4a6.96 6.96 0 0 1-2.02-.97 11.93 11.93 0 0 1-3.6-4.9 2.97 2.97 0 0 1 .08-1.91c.23-.5.87-1.1 1.53-1.45.4-.2.47-.27.42-.41-.3-.93-.23-1.31.27-1.7.25-.19.3-.2.34-.08.04.08-.03.23-.17.37-.17.18-.22.32-.22.61 0 .2.06.46.13.57l.13.18.43-.21c.58-.3 1.9-.44 2.26-.26a7.21 7.21 0 0 1 1.6 1.75c.37.56.37.57.24.83-.07.14-.17.28-.22.3-.16.1-.08.22.15.22.34 0 .95-.3 1.3-.65.32-.3.6-.35.65-.1.04.18-1.12.95-1.65 1.1-.2.06-.4.09-.56.12-.17.03-.29.04-.44.1a.78.78 0 0 0-.26.3c-.05.18-.06.25.08.48.16.28.08.36-.1.09-.05-.1-.14-.17-.18-.17-.13 0-.1.25.02.26.06 0 .04.04-.04.09-.22.12-.18.42.08.63l.23.18-.28.14c-.35.19-.35.43.02.77l.3.28-.22.1c-.17.07-.2.14-.17.28l.06.3c0 .05.17.2.38.32l.39.23-.22.22c-.12.13-.21.27-.21.31 0 .13.3.37.54.43.27.06.27.15 0 .36l-.22.17.18.4c.1.22.17.4.17.43 0 .07-.75 0-1.2-.1zm.78-.2c0-.04-.12-.28-.26-.53l-.32-.57c-.04-.07-.3-.3-.56-.5-.28-.21-.45-.4-.39-.42.06-.02.21.04.34.14.13.1.26.16.28.14.02-.03-.02-.26-.1-.52-.1-.38-.19-.52-.44-.7-.18-.12-.32-.25-.33-.28 0-.1.24-.08.3.02.03.05.1.09.14.09.06 0 .08-.15.04-.44-.04-.35-.1-.49-.29-.63-.13-.1-.2-.22-.17-.25.03-.04.12-.01.2.05.16.14.17.12.22-.36.04-.34.02-.42-.13-.52-.22-.15-.14-.28.1-.15.13.07.18.04.3-.2.13-.28.13-.3-.03-.38-.26-.14-.2-.28.08-.22.23.05.27.03.4-.24.13-.29.13-.31-.02-.49l-.17-.18.27.05c.22.04.3 0 .5-.2.24-.25.24-.25.1-.52a6.9 6.9 0 0 0-1.32-1.57c-.23-.15-.4-.19-.84-.19-.5 0-.63.04-1.69.57-1.74.87-2.22 1.39-2.22 2.4 0 1.2 1.08 3.1 2.7 4.75a6.2 6.2 0 0 0 2.46 1.73c.6.21.85.25.85.12zm.17-.84c0-.09-.26-.2-.32-.14-.02.02-.01.08.02.13.07.1.3.12.3.01zm-.34-1.1c0-.04-.06-.12-.13-.18-.15-.13-.35 0-.26.16.07.11.39.13.39.02zm-.42-1.36c0-.1-.17-.2-.23-.15-.06.07.05.23.15.23.04 0 .08-.04.08-.08zm-.05-1.2c-.06-.1-.3-.1-.3 0 0 .12.1.17.23.12.06-.02.1-.08.07-.12zm11.53 4.76c-.06-.1.45-.92.4-1.25-.03-.24-.07-.03-.34-.31l-.14-.26.18-.1c.48-.1.62-.76.23-1.02-.27-.18-.27-.25.02-.33.33-.08.44-.2.44-.47 0-.16-.07-.29-.23-.4l-.23-.17.24-.1c.2-.07.23-.13.2-.36-.01-.22-.08-.3-.32-.42l-.3-.14.24-.1c.13-.06.23-.15.23-.2 0-.2-.26-.46-.5-.52-.3-.06-.3-.08-.09-.36l.18-.22-.17-.17c-.13-.13-.33-.18-.87-.22-.77-.05-1.08-.19-1.25-.56-.16-.37.02-.44.37-.14.3.27.92.44 1.2.33.13-.05.12-.08-.04-.25a.73.73 0 0 1-.18-.5c0-.28.07-.39.53-.83a4.42 4.42 0 0 1 1.98-1.2c.51-.1 1.29.04 1.95.37.43.2.56.14.76-.33.18-.44.14-.7-.16-1.01-.2-.21-.24-.3-.17-.38.13-.13.68.28.75.57.08.32-.04.93-.25 1.24l-.2.28.64.63c.4.4.74.82.9 1.13.22.46.28.58.24 1.32-.05.75-.12.79-.6 1.75-.5 1-1.26 2-1.85 2.67a7.96 7.96 0 0 1-1.78 1.34c-.54.28-1.94.82-2.01.7zm1.58-.8c1.44-.77 2.6-2.1 3.62-4.12.42-.83.59-1.08.62-1.62.01-.3.01-.56-.1-.8a7.91 7.91 0 0 0-2.5-2.41 2.36 2.36 0 0 0-1.44-.09 10.9 10.9 0 0 0-1.95 1.5c-.1.26-.06.31.2.26.29-.06.3-.04.15.2-.14.23.16.65.45.6.2-.03.2-.02.05.14-.14.16-.14.18.04.56.17.34.22.4.39.35.21-.05.26.08.07.19-.1.05-.1.13 0 .49.08.35.13.42.28.4.23-.03.23.07.01.21-.14.09-.17.2-.17.58 0 .47 0 .47.21.42.25-.06.3.09.04.17-.23.07-.39.34-.46.78-.06.38 0 .43.3.27.39-.2.32-.01-.08.23-.41.26-.51.88-.2.6.1-.1.22.03 0 .18-.3.2-.36.33-.42.58l-.15.58c-.06.18-.21.2.1.16.15-.03.58-.22.94-.4zm-1.13-.89c0-.12-.07-.12-.2-.08-.06.03-.11.04-.09.08.06.1.3.1.3 0zm.26-1.37c0-.04-.06-.08-.13-.08s-.13.04-.13.08c0 .05.06.09.13.09s.13-.04.13-.09zm.17-1.18c0-.05-.04-.09-.08-.09-.05 0-.1.04-.13.09-.03.05 0 .08.08.08.07 0 .13-.03.13-.08zm-.09-1.06a.13.13 0 0 0-.12-.13c-.14 0-.17.1-.07.2s.2.06.2-.07zm-.4-1.07c-.08-.08-.13-.08-.2 0-.09.07-.06.1.1.1.15 0 .18-.03.1-.1zm-.67-.94c-.1-.06.01-.05.1 0 .08.06.12.1-.1 0z"/>
    <path fill="none" stroke="#000" stroke-linecap="round" stroke-width=".12" d="M43.97 54.94l.37-.03"/>
  </g>
</svg>
