<svg xmlns="http://www.w3.org/2000/svg" viewBox="0 0 317.5 317.5"><path fill="#fee7c9" d="M129.9 161.1s.7-7 2.5-8.8c.1.4 2.6 8.5 4.2 8.8l1.5.3 2.6-3.7s1 4.5 1.8 4.8c.6.3 1.8-2.2 1.8-2.2l2.2 3h2.5l2.2-2.8 2.2 3.3s2-1.9 3-7.4l1.4 7 2.3-1.1 1.3-3.8s.9 3.1 1 3.9l2.4.2 1.4-5.5s1.3 2.6 1.7 5.2c0 .3 3 .7 4-.4.4-.2 1.9-2.8 2.7-6.2-.3-.1 1.3 1.3 1.7 5.2l1.9-.2s1.6-1.6 2.9-9.6c.2.2 3.4 6.6 3.5 10.8 0 .6-1.7 3.1-6.3-.6a39 39 0 0 0-2.3.2s-.3 2.7-3.3 1c-.8.2-5.5.4-5.5.4s-.8 2.1-2.4.2l-2-.2s-.6 1-2.4.1c-.5-.1-1-.5-2.5 1.2-1.5 1.6-1.9 2.8-3.8.3-.6-.2-1.2 0-1.2 0s-2.6 1-3.6-.7c-.9-.2-3.1-.2-3.1-.2s-1.3 2.6-3.2 0c-.5.2-3.9 2.2-4.8-1.3l-2-.5s-2.7 3.2-6.3-.7z"/><g fill="#f9d8ab"><path d="M132.4 153s0 10.1 2.7 9.4c.2.1 1.6-.8 1.6-.8zM141.5 164.2s-1.9-1.2-.8-6.3c.2 0 1.8 6 1.8 6zM144.1 164.5s1.6 0 .6-2.6c.2 0 1.3 1.7 1.3 1.7s-.9 1.4-1.9.9zM150.3 164.3s2.4.2 1.1-2.9c1 .7 1.3 3 1.3 3zM154.9 165.4s2.8-1 1.6-7.7c1.3.6 1.1 7 1.1 7s-1.5 2.5-2.7.7zM161 162.8s1 .2.7-3.2c.3.4 1 3.5.7 3.4-.2 0-.8 1-1.4-.2zM165.6 163.6s1.6-.8 1-5.4c-.1-1.9 1.1 5 1.1 5zM173.3 162.6c.3.1 2 .1 1.6-5.2 1 .9.9 4.6.9 4.6s-1.6 1.6-2.5.6zM180.2 162.4s3.3-.5 1.2-10.2c.8 0 3.1 9.7 3.1 9.7s-2.6 2.6-4.3.5z"/></g><path d="M153.6 177.4a648.6 648.6 0 0 1-16.9-3c-.8 0-3-1.4-3.4-2.2l-2.3-2.8-2.1-2.1-.2-1.8c-.3-2.6 0-7 .7-9.5.6-2.5 2.3-6.1 3.3-7 .3-.4.7-.6.8-.5 0 0 .3.8.4 1.7 1 5.1 2.5 9.6 3.6 10.3.5.4.6.3 1.2-1.5 1.6-4 3-4.2 3.3-.5.2 3.1.5 3.6 1.1 2 .6-.8.8-.9 1.4-.7.3.2.5.7.6.9.9 1.6 2.8 3.4 3.5 1.7.2-.8 2-2.6 2.4-2.6.8 0 1.7.8 2.1 1.8.3.6.5.8.6.7.2-.2.7-1.8 1.2-3.7.7-3 .9-3.4 1.4-3.5.8-.1 1 .5 1.5 4l.5 3.3c.4.3 1.5-.5 1.7-1.2.4-2 1-3.4 1.5-3.4.4 0 .6.3.9 1.3l.3 2.1c0 .5.2.8.6 1 .3 0 .7.1.8 0l.3-2.2c.3-2.8.7-3.9 1.6-3.9.5 0 .8.2 1 .7.6 1.1 1.3 3.6 1.3 4.6 0 1 .3 1.1 2 .8 1.3-.3 1.4-.4 2-1.6l.8-3.7c.4-2.5.6-3 1.3-2.8.4.3 1.4 1.8 2 5.2 0 .9.4 1.2.8.7a31 31 0 0 0 2-7.6c0-1.4.3-3 .4-3.4.4-2 2.2-1 3.8 2.5a33.3 33.3 0 0 1 2.7 18.4c0 .2-.8.8-1.8 1.3s-2.4 1.5-3 2.1c-1.4 1.3-2.7 1.8-7.2 2.5-5.3 1-18.4 1.9-20.5 1.6zm7.3-2.3l6.7-.6c7.5-.7 10.3-1.4 12-2.8.5-.5 1.8-1.3 2.7-2l1.7-1V166c.2-2.5.1-2.6-.3-2.5-1.6.7-2.8.5-4.5-.9-1.2-.9-1.4-1-2.2-.8-.4.1-.3.2-.8.7-1 1.1-2.4 1.7-3.8.8-.8-.5-1.2-.6-1.8-.4l-1.7.2c-.6 0-1 .2-1.3.7-.5.8-2.2 1-3 .2-.6-.6-1.8-1-2-.6-.3.5-2.5.3-2.8-.2-.2-.4-.2-.4-.8 0-.3.3-.5.7-.5 1 0 .6-1.5 2.2-2.4 2-.7 0-1.8-.4-2.1-.8-.3-.4-1.4-.3-2.3-.2a3 3 0 0 1-2.6-.6c-1.3-1-2-1.2-2.9-.1-.8 1-2.2 1-3 .2-.6-.5-.6-.5-1.2 0a3 3 0 0 1-1.8.3c-1-.1-1.2-.3-1.9-1.3-.9-1.2-1.3-1.3-2.8-.6-1.2.7-2.8.7-4.1 0l-1-.5v1.8l.2 1.9 1.9 2c1 1 2 2.1 2.1 2.5l1 1a100.8 100.8 0 0 0 15.3 3c3 .5 6.2.6 10 .2zm-3.6-10.6c.3-.5-.4-6.6-.8-6.8l-1.2 4.2c-.7 2.2-.8 2.7-.5 3 .4.6 1.7.4 2.1 0zm-11.6-.8c.3-.3-.3-.3-.8-1-.3-.6-.7-1-.8-1l-.3.9c-.3 1.4 1.2 2 2 1.1zm6.8-.3c0-1-.9-2-1.3-2s-1.5 1.8-1.3 2.3c.1.3.7.6 1.3.6.8 0 1.3-.4 1.3-.9zm-11.1.3c.4-.3.6-.4.2-1.2l-.6-2.2-.3-2.3c-.5.7-1 1.3-1.4 2.4-.7 1.7-.4 2 0 2.7.4 1 1.2 1.2 2 .6zm25.8-1c.2-.9-.8-5.3-1-5-.2.2-.8 2.2-.9 3.4-.1 1.8.4 2.4.8 2.4.6 0 1-.3 1-.8zm-5.3-.6c0-1.2-.3-2.6-.5-2.6-.3 0-.8 2.6-.6 3 0 .3.3.5.6.5.4 0 .5-.2.5-1zm-26.6 0l.4-.3-.9-2c-.5-1.1-1.2-3-1.5-4.2a7.9 7.9 0 0 0-1-2.3c-.5-.2-2 6.3-1.7 7.5.1.6 1.2 1.4 2 1.7a5 5 0 0 0 2.7-.4zm39.4.3c.7-.3.7-.4.5-2.2-.1-2-.5-3.8-.7-3.1l-1.4 4.7c-.2.7.5 1 1.6.6zm8.9-.1c.5-.5.5-.6.3-2a29 29 0 0 0-2.6-8.2c-.2 0-.4 1-.5 2.2a25.3 25.3 0 0 1-1.8 6.3c-.1.3.2.7 1 1.3 1.2 1 2.7 1.1 3.6.4z"/></svg>