<svg xmlns="http://www.w3.org/2000/svg" viewBox="0 0 317.5 317.5">
  <path d="M159.1 189l-1.8-1.7-1-1.2-1.2 1.3c-1 1-1.6 1.3-2.8 1.5-1.3.3-1.7.3-2.7-.2-.7-.2-1.7-.9-2.3-1.4l-1-1-.9.7a5.5 5.5 0 0 1-4.4 1.3c-1.8-.1-3-1-3.8-2.3a45 45 0 0 1-1.4-26.5l1-3.4-.9-.5c-.5-.4-.7-.8-.6-1.3 0-.7.6-.9 1.5-.5.3.1.5 0 .8-.6.4-.6.7-.8 1.1-.8.9.2.9.9-.2 4.5a60 60 0 0 0-2.1 11.8c-.4 6.1 1.4 14.8 3.5 17 1 .8 1.1.9 2.2.7 1 0 1.3-.3 2.2-1.2.7-.8 1-1.3.9-1.7a71.7 71.7 0 0 1-1-25.4c.4-3 .8-3.8 1.7-3 .5.4.5 1-.1 5.4a116 116 0 0 0 0 15.4c.7 7.5 2.3 10.9 5.2 10.9 2 0 3.7-1.3 4-3.1a167.7 167.7 0 0 1-.6-29c.4-.7 1.2-1 1.6-.4l.1 8.4c0 8.7.5 17.6 1.2 20 1 3 2.6 5 4 4.8 1-.3 2.7-1.9 3-3a116 116 0 0 0 .6-24.3c-.3-4-.3-4.7 0-5 .4-.5 1.2-.3 1.4.3l.5 5.3c.5 5.7.5 14.4.1 19-.3 3.7-.1 4.7 1.3 6 1.4 1.2 3 1 4.8-.9.7-.7 1-1.4 1.5-3.7a66 66 0 0 0-.3-28.3c.3-.7 1.4-.6 1.8.1.2.5.5.7 1.1.6 1.1 0 1.3 1 .3 2l-.7.7.4 2.6c.6 3.7.8 9.3.5 14.3-.4 4.5-1 7.8-2 10.9-.7 1.6-1 2-2.2 3-1.5 1.3-3 1.7-4.5 1.3-1.4-.4-2.2-1.1-2.5-2.2l-.1-.9-.6 1c-.2.5-1 1.4-1.8 2-1.6 1.2-3.5 1.5-4.8.7z"/>
</svg>
