<svg xmlns="http://www.w3.org/2000/svg" viewBox="0 0 317.5 317.5">
  <g fill="#fee8cb">
    <path d="M135.5 154.3h6v4.7h-6zM144.3 155.6h4.8v3.5h-4.8zM168.3 155.5h7.3v3.3h-7.3z"/>
  </g>
  <g fill="#f9d8ab">
    <path d="M136 157.4s5.3 1.8 4.7-2c.5 0 .4 3.3.4 3.3l-5.3-.5zM144.3 157.8s2.5 2.3 4.3-1.3c.4.2.2 3.2.2 3.2l-4.4-.3zM168.3 158s6 1 6.9-1.6c-.4 1.5.2 2.6.2 2.6l-7.5-.2z"/>
  </g>
  <path d="M165.1 183.6c0-.6 0-.6-.5-.2-.3.3-.5.4-.7.2-.2-.2-1.1-.2-2.8 0-5 .5-10.1.3-17.3-1a53 53 0 0 0-5-.6l-2.4-.4c-1-.3-1.3-.3-1.6 0-.3.2-.4.1-.4-.3 0-.7-.7-.8-1.4-.2-.2.3-.4.4-.4.2 0-.1.1-.4.4-.6.3-.3.2-.5-.9-1.5a8.1 8.1 0 0 1-1.5-2c-.5-1.3-1-4.3-1.1-9-.2-3.7-.2-4.1-.7-4.2-.6-.2-1-1.3-1-2.7 0-2 1.3-2.9 5-3.3 1 0 1.8-.3 2-.4l.1-1.6c0-2 .3-2.3 3.2-2.5 3.6-.3 4 0 4 3.6 0 1 0 1.4.4 1.4.7 0 .7-.1.7-1-.1-1.7.4-2.2 2.6-2.8 2.5-.6 2.5-.6 3.3.2.6.6.7.9.7 2.4v1.8l6.9-.2c3.8 0 7.7-.2 8.7-.3l1.8-.2.1-1.3c.1-.8.4-1.5.6-1.7.7-.5 7-1 7.6-.5.3.2.5 1 .6 2 .2 1.8 0 1.7 2.9 2 3 .3 4.4 1.5 4.4 3.8 0 1-.2 1.3-1 2-.9.8-1 1-1.1 2.6 0 .9 0 2.6.2 3.8.4 2.7.1 4.8-.9 6.3-.6 1-.6 1-.2 1.4.4.3.4.3-.3.3-.9 0-1.4.6-1 1.3.5 1 .3 1.3-.3.5l-.5-.7-1.5.8c-1.8.8-3.3 1.2-6.7 1.6-1.4.1-2.5.3-2.6.5 0 .2-.2.2-.6 0-.5-.3-1.3 0-1.2.6 0 .1 0 .3-.3.4-.2 0-.3-.1-.3-.5zm-2.2-2l6.6-.8c5.6-.6 7.8-1.5 9.4-4 1-1.6 1.2-2.6.8-6l-.4-4.5v-1.9l1-.4c1.8-.9 1.7-2.2-.3-3-1.5-.6-8-.9-14-.6-8.5.4-19.7.3-25.1-.2a32 32 0 0 0-10.9.2c-.2.1-.4.7-.4 1.1 0 .9.1 1 1.4 1.2 1.5.4 2 1 1.6 1.6a1 1 0 0 1-.8.4c-.5 0-.6.1-.6 1.6 0 1.8.5 7 .8 9 .3 1.8 1.1 2.7 3.5 4 1.3.6 2.3.9 3.6 1l5.9.8c5.2.8 5.4.8 10.6.9 2.6 0 5.5-.1 7.3-.4zm-27-3c-1.3-.6-2.5-1.5-2.3-1.7.1 0 .7.2 1.3.7l2 1c.4 0 .7.2.7.3 0 .4-.6.3-1.7-.3zm34-.8c0-.4.1-.5.5-.5.3 0 .5.1.5.5s-.2.5-.5.5c-.4 0-.5-.1-.5-.5zm3.4-1.3l.1-.3.3.3-.1.2c-.2 0-.3 0-.3-.2zM152 166c-3.8-.3-3.9-.3-3.8-1l.1-.7h8.5l9.4-.1c.7-.1.9 0 1 .5 0 .3-.1.6-.4.8a45 45 0 0 1-14.8.5zm-3.5-8.2c.2-.5.2-1.2.1-1.6-.2-.8-1-1-2.8-.4-1.2.4-1.2.4-1.2 1.6v1.1l1.4.2c2.2.2 2.3.2 2.5-.9zm-7.8-1.3c0-2 0-2-.9-2h-2.1l-1.4.2-.2 1.5a6 6 0 0 0 0 1.5l4.3.7c.3 0 .4-.5.3-2zm34.1.6V156h-2.4c-3.5.2-3.8.3-4 1.2v1c.1.2 1.6.3 3.3.3h3.2z"/>
  <ellipse cx="173.2" cy="178.6" rx=".4" ry=".4"/>
</svg>
