<svg xmlns="http://www.w3.org/2000/svg" viewBox="0 0 317.5 317.5">
  <path d="M146.8 249.8c-1-1-.8-1.6.5-1.6 1.2 0 2-.9 2.8-2.8l.7-1.7-1-.7a24.2 24.2 0 0 1-7.2-20.5c.6-1.8 1-9 .6-9a59 59 0 0 1-3.6 8.7c-.7 1-1.3 3-2 5.7-1 3.7-1 4.5-1 7.1 0 1.7 0 3.6.2 4.3.2 1.6.1 2-.6 2-.8 0-2.4-1.8-3.5-4a8 8 0 0 1-1-3.7l-.2-1.8-1.7 1.1a9.4 9.4 0 0 1-4.8 2c-3.8.7-5.5.1-9.7-3a7.3 7.3 0 0 1-3.3-5 6.5 6.5 0 0 1-.1-3.3c1.1-5.2 3-6.6 9.3-6.7 3 0 3.7.2 4.8 2.5 1 1.7.9 3-.2 3.8-1 .8-1.4.8-2.3.1-.8-.6-2.3-.7-3 0-.4.2-.7.8-.8 1.6-.1 1 0 1.3.5 1.9.7.8 2.2 1.3 3.8 1.3.8 0 1.3-.2 2.1-1 2-1.6 4-5.6 5.2-9.7.5-1.5.5-1.5 0-2-.7-.5-1-2-1.1-3.8 0-1-.5-1.3-1-.6-.2.2-1.2.6-2.2.8-2 .5-3.4.4-5.4-.4-1.5-.6-4.2-3.6-5.6-6.3-1.3-2.6-1-5.9.8-8a5.7 5.7 0 0 1 4.4-2.3c2-.1 3.2.4 3.9 1.9.5 1.2.3 1.6-1 2-3.4 1-2.7 7.6.8 7.7 1.9 0 4.2-3.2 5.4-7.7.7-2.3.7-2.7.6-6.3-.1-3.4-.2-4.2-1-6.4-.5-1.8-.8-3-.8-4.2 0-.9-.2-2.5-.5-3.5-.5-1.7-1.2-6.3-1.1-7.4 0-1 .8-4.3 1.3-5.3.8-2 4.2-6.7 5.4-7.7l3-2.1 3-2.2c1-.8 1.9-1 1.9-.3 0 .4-2.4 2.5-3.9 3.3l-2.4 1.6c-1.2.9-3.3 3.4-3.1 3.7a9 9 0 0 0 2.4.4c2.5.1 3.8.5 3.8 1a62 62 0 0 0-4.4-.2c-2-.2-2.2-.1-2.6.3a10 10 0 0 0-1.8 2.4c-.5 1-1.1 3.5-1 3.7.1 0 1 0 1.9-.2 1.9-.3 4.5 0 4.7.5 0 .2-.5.3-2.1.3-2.6 0-4 .2-4.5.7-.2.3-.3 1-.1 2.2 0 1 .2 1.8.2 1.8l1.8-.4c1.9-.7 6-1 6.2-.4.1.2-.6.4-2 .5-2.7.2-4.8.7-5.4 1.4-.4.4-.4.6 0 2l.5 1.7 1.7-.5c1.8-.6 3-.5 2.4.2-.2.2-.6.4-1 .4-.9 0-2.1.5-2.3 1-.2.6.5 2.3 1.2 3l.9 1.4a45.8 45.8 0 0 1 2 9.8c0 .6.2.6.8.5 1-.2 3.3.3 3.8 1 .6.6.1.8-.9.3-.5-.3-1.3-.4-2.2-.3h-1.4v2c-.1 1.8 0 1.9.4 1.9.7 0 1.6.4 1.6.8 0 .2-.3.3-.7.2a9 9 0 0 0-1 0c-.2 0-.4 1.5-.6 3.6-.4 4.2-1.1 8.3-2 11.7a10 10 0 0 0-.6 2.9c0 .2.4.5.8.6.4.2.7.4.7.6 0 .3-1 .3-1.6 0-.5-.3-.6-.2-1 .5-.3.8-.2 1 .3 1.5.5.6.5.7-.5.7-.4 0-1 .7-2 2.2-1.9 2.7-3.2 3.7-5.1 3.6-3.9-.1-5.7-1.7-5.7-4.7 0-1.5.8-2.3 2.6-2.8 1.5-.3 2.8-.2 3.5.4 1 1 1.4-.4.6-2-.5-1.5-1.7-2.1-4-2.3-1 0-2.3 0-3 .2-1 .3-1 .4-1 1 .2.7.2.7-.3.2-.4-.3-.6-.4-1-.1l-.6.3.5.7c.7.8.5 1.1-.3.3-.2-.3-.6-.5-.8-.5-.3 0-1.1 2-.8 2 .5.2 1 .6.8.8-.1 0-.4 0-.6-.2-.6-.5-.8-.2-.9 1.8-.1 2.9.3 3.9 2.4 6 2.4 2.3 5.5 3.9 7.6 3.9 2 0 3.3-.5 5.4-1.8 3.3-2.2 8-7.2 9.8-10.5a61 61 0 0 0 5.4-15.7c.9-3 1.4-5 2.2-8.8 1.4-6.5 1.3-14.6-.2-17.4-1.1-2.2-1.5-4.8-1.5-10.3 0-4.8 0-5 .6-6 1-1.7 1.5-1.8 7-1.8l8.8.3c3.4.1 4.1.3 5.2.8.7.3 1.3.7 1.3.9l.7 1.9a42.4 42.4 0 0 1 2 21.5 50.7 50.7 0 0 0 1 13 22 22 0 0 0 7 9.5c4 3.6 10.2 7.4 12.2 7.4 1.8 0 6.1-3.8 7.5-6.7 1-2 1.6-3.7 1.6-4.9 0-2.2-3-8.3-4.2-8.8a9 9 0 0 0-4.4.3c-1.2.4-3.2 2.3-3.5 3.3-.2 1 .4 2.9 1 3 .3 0 .5-.3.7-1 .5-1.8 1-2.1 2.7-2.1 1.5 0 1.6 0 2.1.8s.5 1.2.4 3.3c-.2 2.7-.8 4.2-2 5.3-.8.6-1 .7-2.5.5-3-.2-3.6-.4-3.6-.9 0-.3-.2-.7-.5-1-.5-.4-.5-.4-1 .1-.6.7-1.2.8-1.5.4 0-.2 0-.4.3-.6 1.3-.7 1.3-.6-.3-2.7-2.7-3.2-3.3-4.2-3.9-6.4-.9-3.4-.7-9.4.5-14l.1-.7h-2.3c-1.7 0-2.2 0-2.1-.3 0-.2.8-.3 2.3-.3h2.3l1.4-5.6c1.4-5.6 1.4-5.6 1.2-9-.1-3.8-.6-5.5-2.1-8-1.1-1.6-3-3.4-4-3.7-1.6-.4-6-4-6-5 0-.9.7-.6 2.5 1.2a14 14 0 0 0 3.7 2.6c3.4 1.7 6 5.2 7 9.6a25 25 0 0 1-.4 10c-.8 2.5-1 4.2-.6 4.7.5.5.9 7.2.7 11.3a42 42 0 0 1-1.3 9.5c-.3.6 0 1 2.6 4.1 1.9 2.3 3.5 3.6 5 3.7.9 0 1.2 0 2-.7.4-.4.9-1 1-1.3.5-1 .7-3.5.3-4.7-.3-.9-.5-1-1.2-1.1-.7 0-1 0-1.3.7-.3.4-.6 1.1-.7 1.6 0 .8-.2 1-1 1-.6.1-1 0-1.6-.6-2.2-2.3-.6-6.3 3-7.6 2.2-.7 4.9-.9 5.9-.4s3 3.8 4 6.9l.9 2.2-.6 2.1a18 18 0 0 1-7.1 10c-1 .7-1.4.8-3 .8-1.3 0-2-.1-3.4-.8-3-1.5-4.9-2.6-6.6-4-1-.8-1.8-1.3-1.9-1.2-.3.4-2 7.4-2.4 9.9-.2 1.8-.2 3 0 4.6.3 2.2 1.3 5.2 1.8 5.2l1 .4c.8.4 2.4.5 3.1 0 .7-.3.7-2 0-2.9-.3-.4-1-.9-1.7-1.1-1-.4-1.2-.6-1.2-1.2s.2-.9.7-1l.6-.6c0-.1.9-.2 2-.2 2.3 0 3.6.6 5.4 2.5 1.3 1.4 1.3 1.5 1.3 3.1 0 2.6-.6 4.3-2 5.8-1 1-1.6 1.3-2.7 1.5-2.2.5-5.3.4-7.3-.3-2.3-.7-3-1-4.4-2.2l-1-1-.9.8c-.8.8-2.7 1.7-3.6 1.7-.5 0-.5.2-.5 2.3 0 2.5-.6 6-1.3 7.7-.6 1.7-2 1.7-2.5.1-.1-.5-.2-1.4-.1-1.9.2-1-.4-4-1-4.9l-1.6-1.9-1.2-1.2v1.4c-.2.9 0 1.7.2 2.2.6 1.3.4 2-.8 3.2-1 1-1.4 1.2-2.4 1.4-.7 0-1.2.2-1.2.4l-1.1 2c-1.2 1.9-2.5 2.6-4.5 2.7-.9 0-1.3-.2-1.9-.8zm3.7-.8c1-.6 2.4-2.7 2.4-3.5 0-.4-1-1.2-1.1-1l-.6 1.6c-.5 1.6-1.6 2.9-2.5 2.9-.3 0-.5 0-.5.2 0 .5 1.4.3 2.3-.2zm14-5.3a25 25 0 0 0-.9-10.5c-.7-3-1.1-7.6-.7-8.1.2-.2 0-1-1.1-2.7l-1.6-2.5-.8 1.2c-.6 1.3-1 3.4-1.2 5.8l-.1 1.3 1 .1c1 .2 1.1.7 0 .8h-.9v1.6c0 2.8 1.1 6 2.6 7.3.3.2.6.6.6.8 0 .2.2.5.4.6.8.3 1.5 2.1 1.6 4.6.1 1.3.3 2.3.4 2.1l.7-2.4zm-5.2-10.4c.1-.2.5-.4 1-.4.6 0 .9 0 .8.2 0 .2-.5.4-1 .5-.6 0-.8 0-.8-.3zm-.3-1.8c0-.6 2.4-1.1 2.8-.5.2.3 0 .4-1.5.6-.9.2-1.3.1-1.3 0zm-3 12.7c1-.4 2-1.5 1.4-1.9h-1.2c-.7.1-1 0-2.5-1.4-2.2-2-4-4.4-5-6.7-.8-1.6-1-2-1-4.8 0-2.4 0-3.5.3-4.7l.7-2.5.9-2.5a23 23 0 0 0 1.5-10 39 39 0 0 0-.5-7 51.7 51.7 0 0 1 1.3-19c.8-2.4 1-2.7 2.6-4.4 1.6-1.7 2.7-2.2 2.7-1.3 0 .2-.7 1-1.5 1.9l-1.8 2c-.2.4-.2.5.4.3 2-.6 3.4-.8 3.7-.5.3.3.2.5-.3.8l-.6.5 1.2 2.2c1.6 2.9 2.5 5.4 3 8a7 7 0 0 0 .8 2.3c.4.2.7-3.3.5-6.8a39.7 39.7 0 0 0-2.3-12c0-.9 1-.4 1.5.7.6 1.3 1.6 6 2 9.2l.5 2.5c.4-.1 1.9.6 1.8 1-.1.3-.2.3-1.3 0l-.7-.2-.2 2.7c-.2 3.8-2 9.4-4.1 14-.8 1.5-.8 1.7-.7 4l.6 4a35.1 35.1 0 0 0 6.3 11.7c.5.6 1.1 1.9 1.4 2.8.7 2 1 5.3.4 6-.3.3-.3.4 0 .4.7 0 1.8-.8 2.3-1.7.5-1 .8-8 .3-9.6-.3-1.3-1.8-3.1-2.7-3.4-1.8-.6-3.4-9.4-2.5-13.6.2-1 .3-1.9.2-2l-1.1-.4c-1.2-.2-1-.7.4-.6h1.1l.9-2.4c.5-1.3 1-2.6 1.3-2.8.3-.4.4-1.3.4-6.8l.2-12.7c0-5.4 0-6.6-.4-8.4-.7-2.8-1.7-5.4-2.6-6.6l-.7-.9-6-.3c-11.4-.6-12.5-.5-13.2 1.3-1 2.5-.4 12.2.9 14 .7 1 1.3 4.3 1.5 7.7.2 5-.5 10.2-2.6 17.7a28 28 0 0 0-1 9.8c0 5.6 0 7-.5 8.7-.5 1.7-.5 2.4-.3 4.4.5 5 1.6 8.2 4.6 12.4 1.4 2 2.2 2.8 3.4 3.6 2.5 1.6 3 1.7 4.3 1.3zm-8.4-30.4c-.3-.3-.3-.3 0-.5.6-.4 1.6-.4 1.8 0 .3.6-1 1-1.8.5zm-.8-2.5c0-.8 3.4-.7 3.7 0 0 .3-.4.4-1.8.4s-1.9-.1-1.9-.4zm16.9-5c-.4-.3-.4-.4-.2-.6.4-.2 1.4.1 1.3.5-.2.4-.6.5-1.1 0zm-11-38.5c-2.4-.4-2.7-.6-2.7-1.1 0-.5.1-.6.7-.4l5.9.3c2.8 0 5.2.2 5.4.3.1.1 0 .4-.2.6-.5.4-7 .6-9 .3zm4.4 70.1c.2-3.6.2-3.6-.1-7v-5.5c.2-2.2.2-3.1-.2-4.6l-2.4-11.5a39.9 39.9 0 0 1 4.3-19.2c.4-.3.3-.5-.8-2.9-.7-1.4-1.5-3-1.8-3.3-.5-.7-.6-.7-1.3-.5l-1 .2c-.6-.1-1 1.3-1.7 5s-.8 11.9-.3 13.7c.2.6.5 3.9.6 8.8a60 60 0 0 0 1.5 14.7c.6 2 .6 7.6 0 10.7l-.5 2.5 1 1c1 1 1.9 1.4 2.4 1 .1-.1.3-1.5.3-3zm-21.9-2c0-2.4 0-3.6.5-5.7.3-1.5.6-2.8.5-3 0 0-.8.6-1.7 1.6l-1.5 1.8v2.2c0 2 0 2.5.7 3.7a8.1 8.1 0 0 0 1.6 2.4v-3zm17.3 1c.8-2.9.8-8 0-10.9-.2-.8-.5-2.5-.6-3.8-.2-1.4-.5-2.6-.6-2.7 0-.1-.7 1.3-1.3 3.1-1 3-1 3.7-1 6-.1 3 .3 4.8 1.8 7 1.1 1.8 1.5 2 1.7 1.3zm32-.6c1.9-1 2.4-1.8 2.8-4.4.3-2 .3-2.2-1.5-4a5.6 5.6 0 0 0-4.2-1.7c-1.5 0-1.6.5-.3 1.4 1.5 1 2 2.2 2 3.8 0 1.4 0 1.4-1 2-1 .5-1.5.5-2.8.4-1 0-2-.3-2.2-.4-.6-.4-2-3-2.4-5-.2-.7-.4-2.7-.4-4.5v-3.2l-1-.7c-.4-.4-1-.7-1.2-.7-.2 0-.3-.1-.3-.4 0-.5.7-.4 1.8.2 1.2.7 1.4.4.4-.6-.5-.4-.9-.9-.9-1 0-.4.7-.3 1 .1.7.8 1 .4 1.6-2a38 38 0 0 1 1-3.4l.4-.8-2.1-2.2-2-2-.3 2.2c-.2 2.8-1.1 5.8-2.7 8.5l-1.1 2.2 1 1.2c1.6 1.6 2 2.8 1.8 7.6 0 2.2-.2 4.3-.3 4.5-.1.4 0 .5.2.5s.6.2.7.5c.4.7 3.2 2 5.2 2.6.7.2 2.2.3 3.3.2a7 7 0 0 0 3.5-.9zm-17.8-2.1c.3-.6 0-3.9-.6-5.4-.3-.9-1.6-2.6-2-2.6-.3 0 .4 5.8 1.1 8.2.2.5 1.2.3 1.5-.2zm-7.7-14.8l.6-1-.7-2c-.6-1.9-.8-2.8-.9-6 0-3.5 0-3.7.6-4.6.7-1 2.6-5.7 2.6-6.5a45.7 45.7 0 0 0-1.8-7.7c-.3 0-.8 1.2-2.8 7-.7 2.3-.8 3-1 6.7 0 3.6 0 4.4.5 6.3.5 1.8 1.9 8.3 1.9 8.7 0 .4.4 0 1-.9zm10.6-3c2.4-5 2.8-9.5 1-13l-1.1-2.6c-.4-1.5-.8-1-2 2.7a23.1 23.1 0 0 0-1 10.9c.5 2.6 1.1 4.7 1.5 4.7.2 0 .9-1.3 1.6-2.7zm-37.2-3l.6-2.8a63.7 63.7 0 0 0 .4-18.6l-.3-.1-.5 3.5a64.3 64.3 0 0 0-1 17.8c.2 1.4.6 1.4.8.1zm-4.9-3c2.3-.7 2.4-.9 2.5-4.3.1-2.5.1-3-.2-2.5-2 3-3.2 4-4.9 4-1.6 0-2.7-.8-3.6-2.6-.8-1.6-.8-3-.2-4.8.4-1.2.7-1.5 1.7-2l1.2-.8-.6-1c-.6-.6-.9-.7-1.8-.5-3.6.4-6 4.2-4.8 7.5.9 2.7 3.5 6 5.4 7 1.2.6 3.8.6 5.3 0zm53.9-12a58.7 58.7 0 0 0 .1-16.2c-.3.4-1.3 4.5-1.7 7.6-.6 3.8-.3 8.4.7 10.3.4.7.5.4.9-1.7zm-49-11.6c-.2-.6-.6-1-.8-1.2-.3 0-.4 0-.3.3l.3 1.3c.4 1.8.5 1.9.7 1.2.2-.4.2-1 0-1.6zM176 194c-.3-.3-.2-.6.4-.6.6 0 1.3.3 1.3.6 0 .2-1.4.3-1.7 0zm-.1-7.2c-.5-.2-.6-.4-.4-.6.4-.3 2.8 0 3 .5 0 .4-1.7.5-2.6 0zm-.6-18.5c0-.5 1-1.1 2.1-1.2 1.5 0 1.7.4.2.8l-1.7.5h-.6zm-2.1-2.4c0-.4 1.5-1 3.4-1.5 2.2-.4 2.7-.4 2.7 0 0 .2-1 .6-2.5 1-1.3.2-2.7.6-3 .7-.3 0-.6 0-.6-.2z"/>
</svg>
